<?xml version="1.0" encoding="UTF-8"?>
<!DOCTYPE svg PUBLIC "-//W3C//DTD SVG 1.1//EN" "http://www.w3.org/Graphics/SVG/1.1/DTD/svg11.dtd">
<svg xmlns="http://www.w3.org/2000/svg" version="1.1" width="800px" height="800px" style="shape-rendering:geometricPrecision; text-rendering:geometricPrecision; image-rendering:optimizeQuality; fill-rule:evenodd; clip-rule:evenodd" xmlns:xlink="http://www.w3.org/1999/xlink">
<g><path style="opacity:0.016" fill="#000000" d="M 382.5,64.5 C 393.993,63.3405 405.659,63.1739 417.5,64C 405.838,64.4999 394.171,64.6665 382.5,64.5 Z"/></g>
<g><path style="opacity:0.016" fill="#000000" d="M 365.5,65.5 C 367.966,64.3659 370.633,64.1993 373.5,65C 370.854,65.4974 368.187,65.6641 365.5,65.5 Z"/></g>
<g><path style="opacity:0.016" fill="#000000" d="M 425.5,65.5 C 427.966,64.3659 430.633,64.1993 433.5,65C 430.854,65.4974 428.187,65.6641 425.5,65.5 Z"/></g>
<g><path style="opacity:0.016" fill="#000000" d="M 354.5,66.5 C 356.628,65.3709 358.961,65.2042 361.5,66C 359.19,66.4966 356.857,66.6633 354.5,66.5 Z"/></g>
<g><path style="opacity:0.997" fill="#000000" d="M 614.5,120.5 C 614.973,121.906 615.973,122.573 617.5,122.5C 618.262,124.262 619.596,125.262 621.5,125.5C 622.585,127.587 624.251,128.92 626.5,129.5C 628.219,132.219 630.553,134.219 633.5,135.5C 637.833,140.5 642.5,145.167 647.5,149.5C 648.419,152.089 650.086,154.089 652.5,155.5C 652.738,157.404 653.738,158.738 655.5,159.5C 655.738,161.404 656.738,162.738 658.5,163.5C 658.427,165.027 659.094,166.027 660.5,166.5C 660.427,168.027 661.094,169.027 662.5,169.5C 664.332,173.836 666.665,177.836 669.5,181.5C 669.992,183.819 670.992,185.819 672.5,187.5C 688.662,226.137 693.162,266.137 686,307.5C 683.458,321.665 680.292,335.665 676.5,349.5C 675.129,351.936 674.129,354.603 673.5,357.5C 666.655,374.023 659.988,390.69 653.5,407.5C 652.326,408.514 651.66,409.847 651.5,411.5C 648.655,416.531 646.322,421.864 644.5,427.5C 643.596,428.209 643.263,429.209 643.5,430.5C 641.043,433.751 639.376,437.418 638.5,441.5C 636.326,444.515 634.659,447.849 633.5,451.5C 625.263,467.641 617.263,483.974 609.5,500.5C 608.833,500.5 608.5,500.833 608.5,501.5C 606.992,503.181 605.992,505.181 605.5,507.5C 604.326,508.514 603.66,509.847 603.5,511.5C 600.331,515.833 597.664,520.5 595.5,525.5C 589.442,534.902 583.776,544.569 578.5,554.5C 577.094,554.973 576.427,555.973 576.5,557.5C 574.75,558.659 573.75,560.326 573.5,562.5C 572.833,562.5 572.5,562.833 572.5,563.5C 571.662,563.842 571.328,564.508 571.5,565.5C 570.094,565.973 569.427,566.973 569.5,568.5C 565.425,572.976 562.092,577.976 559.5,583.5C 558.094,583.973 557.427,584.973 557.5,586.5C 556.094,586.973 555.427,587.973 555.5,589.5C 553.1,591.296 551.433,593.63 550.5,596.5C 548.738,597.262 547.738,598.596 547.5,600.5C 545.738,601.262 544.738,602.596 544.5,604.5C 542.738,605.262 541.738,606.596 541.5,608.5C 539.1,610.296 537.433,612.63 536.5,615.5C 534.738,616.262 533.738,617.596 533.5,619.5C 532.094,619.973 531.427,620.973 531.5,622.5C 529.738,623.262 528.738,624.596 528.5,626.5C 527.094,626.973 526.427,627.973 526.5,629.5C 524.738,630.262 523.738,631.596 523.5,633.5C 522.094,633.973 521.427,634.973 521.5,636.5C 519.738,637.262 518.738,638.596 518.5,640.5C 517.094,640.973 516.427,641.973 516.5,643.5C 514.738,644.262 513.738,645.596 513.5,647.5C 511.738,648.262 510.738,649.596 510.5,651.5C 506.738,654.929 503.738,658.929 501.5,663.5C 499.738,664.262 498.738,665.596 498.5,667.5C 496.11,668.891 494.443,670.891 493.5,673.5C 491.738,674.262 490.738,675.596 490.5,677.5C 489.833,677.5 489.5,677.833 489.5,678.5C 487.086,679.911 485.419,681.911 484.5,684.5C 483.833,684.5 483.5,684.833 483.5,685.5C 477.167,691.167 471.167,697.167 465.5,703.5C 463.833,704.5 462.5,705.833 461.5,707.5C 459.251,708.08 457.585,709.413 456.5,711.5C 453.717,713.067 451.051,714.9 448.5,717C 449.34,718.666 448.84,718.833 447,717.5C 446.283,718.044 445.783,718.711 445.5,719.5C 444.069,719.881 443.236,720.881 443,722.5C 442.667,721.833 442.333,721.167 442,720.5C 437.827,722.917 434.327,725.251 431.5,727.5C 431.44,726.957 431.107,726.624 430.5,726.5C 420.599,730.725 410.266,733.225 399.5,734C 407.459,734.824 407.459,735.324 399.5,735.5C 397.5,735.333 395.5,735.167 393.5,735C 394.833,734.667 396.167,734.333 397.5,734C 386.871,732.593 376.538,730.093 366.5,726.5C 359.841,722.503 353.175,718.503 346.5,714.5C 345.738,712.738 344.404,711.738 342.5,711.5C 341.089,709.086 339.089,707.419 336.5,706.5C 336.167,705.167 335.833,705.167 335.5,706.5C 332.194,701.502 327.861,696.835 322.5,692.5C 321.833,691.167 320.833,690.167 319.5,689.5C 318.219,686.553 316.219,684.219 313.5,682.5C 312.219,679.553 310.219,677.219 307.5,675.5C 306.92,673.251 305.587,671.585 303.5,670.5C 303.262,668.596 302.262,667.262 300.5,666.5C 300.262,664.596 299.262,663.262 297.5,662.5C 297.262,660.596 296.262,659.262 294.5,658.5C 294.573,656.973 293.906,655.973 292.5,655.5C 292.262,653.596 291.262,652.262 289.5,651.5C 289.573,649.973 288.906,648.973 287.5,648.5C 286.52,645.884 285.02,643.551 283,641.5C 281.334,642.34 281.167,641.84 282.5,640C 281.267,638.333 279.933,636.833 278.5,635.5C 274.609,628.83 270.276,622.497 265.5,616.5C 263.866,613.834 261.866,610.834 259.5,607.5C 257.608,603.827 255.275,600.494 252.5,597.5C 251.66,595.147 250.326,593.147 248.5,591.5C 248.573,589.973 247.906,588.973 246.5,588.5C 246.573,586.973 245.906,585.973 244.5,585.5C 244.573,583.973 243.906,582.973 242.5,582.5C 242.573,580.973 241.906,579.973 240.5,579.5C 240.573,577.973 239.906,576.973 238.5,576.5C 236.913,572.317 234.579,568.65 231.5,565.5C 230.943,562.95 229.61,560.95 227.5,559.5C 227.672,558.508 227.338,557.842 226.5,557.5C 223.92,551.332 220.586,545.665 216.5,540.5C 215.331,537.489 213.664,534.822 211.5,532.5C 209.336,527.5 206.669,522.833 203.5,518.5C 202.833,517.833 202.167,517.167 201.5,516.5C 202.108,514.316 201.441,512.316 199.5,510.5C 199.167,509.167 198.833,509.167 198.5,510.5C 197.369,505.57 195.036,500.903 191.5,496.5C 190.258,492.345 188.258,488.678 185.5,485.5C 185.672,484.508 185.338,483.842 184.5,483.5C 184.737,482.209 184.404,481.209 183.5,480.5C 181.341,474.849 178.674,469.516 175.5,464.5C 173.008,458.182 170.008,452.182 166.5,446.5C 165.224,441.282 162.891,436.615 159.5,432.5C 160.349,430.49 159.682,428.823 157.5,427.5C 157.672,426.508 157.338,425.842 156.5,425.5C 156.737,424.209 156.404,423.209 155.5,422.5C 154.379,417.522 152.712,414.188 150.5,412.5C 151.043,412.44 151.376,412.107 151.5,411.5C 149.714,406.754 147.381,402.42 144.5,398.5C 145.108,396.316 144.441,394.316 142.5,392.5C 142.02,389.557 141.02,386.89 139.5,384.5C 139.34,382.847 138.674,381.514 137.5,380.5C 137.539,377.911 136.539,375.911 134.5,374.5C 135.043,374.44 135.376,374.107 135.5,373.5C 134.004,369.647 132.338,365.981 130.5,362.5C 129.39,358.468 127.723,354.802 125.5,351.5C 125.741,349.102 125.074,347.102 123.5,345.5C 120.331,332.68 116.997,320.013 113.5,307.5C 113.611,306.883 113.944,306.383 114.5,306C 113.584,305.722 112.918,305.222 112.5,304.5C 113.843,302.317 113.51,300.317 111.5,298.5C 112.937,295.67 112.604,293.003 110.5,290.5C 111.833,287.167 111.833,283.833 110.5,280.5C 109.417,254.658 112.417,229.324 119.5,204.5C 121.006,202.025 122.339,199.358 123.5,196.5C 123.376,195.893 123.043,195.56 122.5,195.5C 125.207,192.753 126.873,189.42 127.5,185.5C 128.338,185.158 128.672,184.492 128.5,183.5C 131.669,179.167 134.336,174.5 136.5,169.5C 137.906,169.027 138.573,168.027 138.5,166.5C 140.547,164.45 142.214,162.117 143.5,159.5C 145.262,158.738 146.262,157.404 146.5,155.5C 154.86,146.473 163.527,137.806 172.5,129.5C 174.749,128.92 176.415,127.587 177.5,125.5C 179.404,125.262 180.738,124.262 181.5,122.5C 183.027,122.573 184.027,121.906 184.5,120.5C 188.852,118.327 192.852,115.66 196.5,112.5C 198.674,112.25 200.341,111.25 201.5,109.5C 206.32,107.926 210.653,105.593 214.5,102.5C 215.492,102.672 216.158,102.338 216.5,101.5C 242.754,89.6941 270.087,81.1941 298.5,76C 378.561,59.6508 457.894,62.6508 536.5,85C 564.451,92.8132 590.451,104.647 614.5,120.5 Z"/></g>
<g><path style="opacity:0.016" fill="#000000" d="M 437.5,66.5 C 439.628,65.3709 441.961,65.2042 444.5,66C 442.19,66.4966 439.857,66.6633 437.5,66.5 Z"/></g>
<g><path style="opacity:0.016" fill="#000000" d="M 345.5,67.5 C 347.288,66.3775 349.288,66.2109 351.5,67C 349.527,67.4955 347.527,67.6621 345.5,67.5 Z"/></g>
<g><path style="opacity:0.016" fill="#000000" d="M 447.5,67.5 C 448.946,66.3871 450.613,66.2204 452.5,67C 450.866,67.4935 449.199,67.6602 447.5,67.5 Z"/></g>
<g><path style="opacity:0.016" fill="#000000" d="M 337.5,68.5 C 338.946,67.3871 340.613,67.2204 342.5,68C 340.866,68.4935 339.199,68.6602 337.5,68.5 Z"/></g>
<g><path style="opacity:0.016" fill="#000000" d="M 456.5,68.5 C 457.601,67.4017 458.934,67.235 460.5,68C 459.207,68.49 457.873,68.6567 456.5,68.5 Z"/></g>
<g><path style="opacity:0.016" fill="#000000" d="M 330.5,69.5 C 331.601,68.4017 332.934,68.235 334.5,69C 333.207,69.49 331.873,69.6567 330.5,69.5 Z"/></g>
<g><path style="opacity:0.016" fill="#000000" d="M 463.5,69.5 C 464.601,68.4017 465.934,68.235 467.5,69C 466.207,69.49 464.873,69.6567 463.5,69.5 Z"/></g>
<g><path style="opacity:0.016" fill="#000000" d="M 323.5,70.5 C 324.251,69.4265 325.251,69.2599 326.5,70C 325.552,70.4828 324.552,70.6495 323.5,70.5 Z"/></g>
<g><path style="opacity:0.016" fill="#000000" d="M 470.5,70.5 C 471.601,69.4017 472.934,69.235 474.5,70C 473.207,70.49 471.873,70.6567 470.5,70.5 Z"/></g>
<g><path style="opacity:0.016" fill="#000000" d="M 316.5,71.5 C 317.601,70.4017 318.934,70.235 320.5,71C 319.207,71.49 317.873,71.6567 316.5,71.5 Z"/></g>
<g><path style="opacity:0.016" fill="#000000" d="M 477.5,71.5 C 478.251,70.4265 479.251,70.2599 480.5,71C 479.552,71.4828 478.552,71.6495 477.5,71.5 Z"/></g>
<g><path style="opacity:0.016" fill="#000000" d="M 310.5,72.5 C 311.601,71.4017 312.934,71.235 314.5,72C 313.207,72.49 311.873,72.6567 310.5,72.5 Z"/></g>
<g><path style="opacity:0.016" fill="#000000" d="M 483.5,72.5 C 484.251,71.4265 485.251,71.2599 486.5,72C 485.552,72.4828 484.552,72.6495 483.5,72.5 Z"/></g>
<g><path style="opacity:0.016" fill="#000000" d="M 304.5,73.5 C 305.601,72.4017 306.934,72.235 308.5,73C 307.207,73.49 305.873,73.6567 304.5,73.5 Z"/></g>
<g><path style="opacity:0.016" fill="#000000" d="M 489.5,73.5 C 490.251,72.4265 491.251,72.2599 492.5,73C 491.552,73.4828 490.552,73.6495 489.5,73.5 Z"/></g>
<g><path style="opacity:0.016" fill="#000000" d="M 299.5,74.5 C 300.251,73.4265 301.251,73.2599 302.5,74C 301.552,74.4828 300.552,74.6495 299.5,74.5 Z"/></g>
<g><path style="opacity:0.016" fill="#000000" d="M 494.5,74.5 C 495.251,73.4265 496.251,73.2599 497.5,74C 496.552,74.4828 495.552,74.6495 494.5,74.5 Z"/></g>
<g><path style="opacity:0.016" fill="#000000" d="M 293.5,75.5 C 294.251,74.4265 295.251,74.2599 296.5,75C 295.552,75.4828 294.552,75.6495 293.5,75.5 Z"/></g>
<g><path style="opacity:0.016" fill="#000000" d="M 499.5,75.5 C 500.251,74.4265 501.251,74.2599 502.5,75C 501.552,75.4828 500.552,75.6495 499.5,75.5 Z"/></g>
<g><path style="opacity:0.016" fill="#000000" d="M 288.5,76.5 C 289.251,75.4265 290.251,75.2599 291.5,76C 290.552,76.4828 289.552,76.6495 288.5,76.5 Z"/></g>
<g><path style="opacity:0.016" fill="#000000" d="M 504.5,76.5 C 505.251,75.4265 506.251,75.2599 507.5,76C 506.552,76.4828 505.552,76.6495 504.5,76.5 Z"/></g>
<g><path style="opacity:0.016" fill="#000000" d="M 283.5,77.5 C 284.251,76.4265 285.251,76.2599 286.5,77C 285.552,77.4828 284.552,77.6495 283.5,77.5 Z"/></g>
<g><path style="opacity:0.016" fill="#000000" d="M 509.5,77.5 C 510.251,76.4265 511.251,76.2599 512.5,77C 511.552,77.4828 510.552,77.6495 509.5,77.5 Z"/></g>
<g><path style="opacity:0.016" fill="#000000" d="M 279.5,78.5 C 279.897,77.475 280.563,77.3083 281.5,78C 280.906,78.4643 280.239,78.631 279.5,78.5 Z"/></g>
<g><path style="opacity:0.016" fill="#000000" d="M 514.5,78.5 C 514.897,77.475 515.563,77.3083 516.5,78C 515.906,78.4643 515.239,78.631 514.5,78.5 Z"/></g>
<g><path style="opacity:0.016" fill="#000000" d="M 274.5,79.5 C 275.251,78.4265 276.251,78.2599 277.5,79C 276.552,79.4828 275.552,79.6495 274.5,79.5 Z"/></g>
<g><path style="opacity:0.016" fill="#000000" d="M 518.5,79.5 C 519.251,78.4265 520.251,78.2599 521.5,79C 520.552,79.4828 519.552,79.6495 518.5,79.5 Z"/></g>
<g><path style="opacity:0.016" fill="#000000" d="M 271.5,80.5 C 271.897,79.475 272.563,79.3083 273.5,80C 272.906,80.4643 272.239,80.631 271.5,80.5 Z"/></g>
<g><path style="opacity:0.016" fill="#000000" d="M 522.5,80.5 C 522.897,79.475 523.563,79.3083 524.5,80C 523.906,80.4643 523.239,80.631 522.5,80.5 Z"/></g>
<g><path style="opacity:0.016" fill="#000000" d="M 267.5,81.5 C 267.897,80.475 268.563,80.3083 269.5,81C 268.906,81.4643 268.239,81.631 267.5,81.5 Z"/></g>
<g><path style="opacity:0.016" fill="#000000" d="M 526.5,81.5 C 526.897,80.475 527.563,80.3083 528.5,81C 527.906,81.4643 527.239,81.631 526.5,81.5 Z"/></g>
<g><path style="opacity:0.016" fill="#000000" d="M 264.5,82.5 C 264.897,81.475 265.563,81.3083 266.5,82C 265.906,82.4643 265.239,82.631 264.5,82.5 Z"/></g>
<g><path style="opacity:0.016" fill="#000000" d="M 530.5,82.5 C 530.897,81.475 531.563,81.3083 532.5,82C 531.906,82.4643 531.239,82.631 530.5,82.5 Z"/></g>
<g><path style="opacity:0.016" fill="#000000" d="M 260.5,83.5 C 260.897,82.475 261.563,82.3083 262.5,83C 261.906,83.4643 261.239,83.631 260.5,83.5 Z"/></g>
<g><path style="opacity:0.016" fill="#000000" d="M 533.5,83.5 C 533.897,82.475 534.563,82.3083 535.5,83C 534.906,83.4643 534.239,83.631 533.5,83.5 Z"/></g>
<g><path style="opacity:0.016" fill="#000000" d="M 257.5,84.5 C 257.897,83.475 258.563,83.3083 259.5,84C 258.906,84.4643 258.239,84.631 257.5,84.5 Z"/></g>
<g><path style="opacity:0.016" fill="#000000" d="M 537.5,84.5 C 537.897,83.475 538.563,83.3083 539.5,84C 538.906,84.4643 538.239,84.631 537.5,84.5 Z"/></g>
<g><path style="opacity:0.016" fill="#000000" d="M 254.5,85.5 C 254.897,84.475 255.563,84.3083 256.5,85C 255.906,85.4643 255.239,85.631 254.5,85.5 Z"/></g>
<g><path style="opacity:0.016" fill="#000000" d="M 540.5,85.5 C 540.897,84.475 541.563,84.3083 542.5,85C 541.906,85.4643 541.239,85.631 540.5,85.5 Z"/></g>
<g><path style="opacity:0.016" fill="#000000" d="M 251.5,86.5 C 251.897,85.475 252.563,85.3083 253.5,86C 252.906,86.4643 252.239,86.631 251.5,86.5 Z"/></g>
<g><path style="opacity:0.016" fill="#000000" d="M 544.5,85.5 C 545.833,86.1667 545.833,86.1667 544.5,85.5 Z"/></g>
<g><path style="opacity:0.016" fill="#000000" d="M 248.5,87.5 C 248.897,86.475 249.563,86.3083 250.5,87C 249.906,87.4643 249.239,87.631 248.5,87.5 Z"/></g>
<g><path style="opacity:0.016" fill="#000000" d="M 547.5,86.5 C 548.833,87.1667 548.833,87.1667 547.5,86.5 Z"/></g>
<g><path style="opacity:0.016" fill="#000000" d="M 245.5,88.5 C 245.897,87.475 246.563,87.3083 247.5,88C 246.906,88.4643 246.239,88.631 245.5,88.5 Z"/></g>
<g><path style="opacity:0.016" fill="#000000" d="M 550.5,87.5 C 551.833,88.1667 551.833,88.1667 550.5,87.5 Z"/></g>
<g><path style="opacity:0.016" fill="#000000" d="M 242.5,89.5 C 242.897,88.475 243.563,88.3083 244.5,89C 243.906,89.4643 243.239,89.631 242.5,89.5 Z"/></g>
<g><path style="opacity:0.016" fill="#000000" d="M 553.5,88.5 C 554.833,89.1667 554.833,89.1667 553.5,88.5 Z"/></g>
<g><path style="opacity:0.016" fill="#000000" d="M 240.5,89.5 C 241.833,90.1667 241.833,90.1667 240.5,89.5 Z"/></g>
<g><path style="opacity:0.016" fill="#000000" d="M 556.5,89.5 C 557.833,90.1667 557.833,90.1667 556.5,89.5 Z"/></g>
<g><path style="opacity:0.016" fill="#000000" d="M 237.5,91.5 C 237.897,90.475 238.563,90.3083 239.5,91C 238.906,91.4643 238.239,91.631 237.5,91.5 Z"/></g>
<g><path style="opacity:0.016" fill="#000000" d="M 558.5,91.5 C 558.897,90.475 559.563,90.3083 560.5,91C 559.906,91.4643 559.239,91.631 558.5,91.5 Z"/></g>
<g><path style="opacity:0.016" fill="#000000" d="M 235.5,91.5 C 236.833,92.1667 236.833,92.1667 235.5,91.5 Z"/></g>
<g><path style="opacity:0.016" fill="#000000" d="M 561.5,91.5 C 562.833,92.1667 562.833,92.1667 561.5,91.5 Z"/></g>
<g><path style="opacity:0.016" fill="#000000" d="M 232.5,92.5 C 233.833,93.1667 233.833,93.1667 232.5,92.5 Z"/></g>
<g><path style="opacity:0.016" fill="#000000" d="M 564.5,92.5 C 565.833,93.1667 565.833,93.1667 564.5,92.5 Z"/></g>
<g><path style="opacity:0.016" fill="#000000" d="M 230.5,93.5 C 231.833,94.1667 231.833,94.1667 230.5,93.5 Z"/></g>
<g><path style="opacity:0.016" fill="#000000" d="M 566.5,93.5 C 567.833,94.1667 567.833,94.1667 566.5,93.5 Z"/></g>
<g><path style="opacity:0.016" fill="#000000" d="M 228.5,94.5 C 229.833,95.1667 229.833,95.1667 228.5,94.5 Z"/></g>
<g><path style="opacity:0.016" fill="#000000" d="M 569.5,94.5 C 570.833,95.1667 570.833,95.1667 569.5,94.5 Z"/></g>
<g><path style="opacity:0.016" fill="#000000" d="M 225.5,95.5 C 226.833,96.1667 226.833,96.1667 225.5,95.5 Z"/></g>
<g><path style="opacity:0.016" fill="#000000" d="M 571.5,95.5 C 572.833,96.1667 572.833,96.1667 571.5,95.5 Z"/></g>
<g><path style="opacity:0.016" fill="#000000" d="M 223.5,96.5 C 224.833,97.1667 224.833,97.1667 223.5,96.5 Z"/></g>
<g><path style="opacity:0.016" fill="#000000" d="M 573.5,96.5 C 574.833,97.1667 574.833,97.1667 573.5,96.5 Z"/></g>
<g><path style="opacity:0.016" fill="#000000" d="M 221.5,97.5 C 222.833,98.1667 222.833,98.1667 221.5,97.5 Z"/></g>
<g><path style="opacity:0.016" fill="#000000" d="M 219.5,98.5 C 220.833,99.1667 220.833,99.1667 219.5,98.5 Z"/></g>
<g><path style="opacity:0.016" fill="#000000" d="M 578.5,98.5 C 579.833,99.1667 579.833,99.1667 578.5,98.5 Z"/></g>
<g><path style="opacity:0.016" fill="#000000" d="M 217.5,99.5 C 218.833,100.167 218.833,100.167 217.5,99.5 Z"/></g>
<g><path style="opacity:0.016" fill="#000000" d="M 580.5,99.5 C 581.833,100.167 581.833,100.167 580.5,99.5 Z"/></g>
<g><path style="opacity:0.016" fill="#000000" d="M 216.5,101.5 C 215.833,100.167 215.833,100.167 216.5,101.5 Z"/></g>
<g><path style="opacity:0.016" fill="#000000" d="M 582.5,100.5 C 583.833,101.167 583.833,101.167 582.5,100.5 Z"/></g>
<g><path style="opacity:0.016" fill="#000000" d="M 214.5,102.5 C 213.833,101.167 213.833,101.167 214.5,102.5 Z"/></g>
<g><path style="opacity:0.016" fill="#000000" d="M 584.5,101.5 C 585.833,102.167 585.833,102.167 584.5,101.5 Z"/></g>
<g><path style="opacity:0.016" fill="#000000" d="M 211.5,102.5 C 212.833,103.167 212.833,103.167 211.5,102.5 Z"/></g>
<g><path style="opacity:0.016" fill="#000000" d="M 586.5,102.5 C 587.833,103.167 587.833,103.167 586.5,102.5 Z"/></g>
<g><path style="opacity:0.016" fill="#000000" d="M 209.5,103.5 C 210.833,104.167 210.833,104.167 209.5,103.5 Z"/></g>
<g><path style="opacity:0.016" fill="#000000" d="M 588.5,103.5 C 589.833,104.167 589.833,104.167 588.5,103.5 Z"/></g>
<g><path style="opacity:0.016" fill="#000000" d="M 207.5,104.5 C 208.833,105.167 208.833,105.167 207.5,104.5 Z"/></g>
<g><path style="opacity:0.016" fill="#000000" d="M 590.5,104.5 C 591.833,105.167 591.833,105.167 590.5,104.5 Z"/></g>
<g><path style="opacity:0.016" fill="#000000" d="M 205.5,105.5 C 206.833,106.167 206.833,106.167 205.5,105.5 Z"/></g>
<g><path style="opacity:0.016" fill="#000000" d="M 592.5,105.5 C 593.833,106.167 593.833,106.167 592.5,105.5 Z"/></g>
<g><path style="opacity:0.016" fill="#000000" d="M 203.5,106.5 C 204.833,107.167 204.833,107.167 203.5,106.5 Z"/></g>
<g><path style="opacity:0.016" fill="#000000" d="M 201.5,109.5 C 200.833,108.167 200.833,108.167 201.5,109.5 Z"/></g>
<g><path style="opacity:0.016" fill="#000000" d="M 597.5,108.5 C 598.833,109.167 598.833,109.167 597.5,108.5 Z"/></g>
<g><path style="opacity:0.016" fill="#000000" d="M 198.5,109.5 C 199.833,110.167 199.833,110.167 198.5,109.5 Z"/></g>
<g><path style="opacity:0.016" fill="#000000" d="M 599.5,109.5 C 600.833,110.167 600.833,110.167 599.5,109.5 Z"/></g>
<g><path style="opacity:0.016" fill="#000000" d="M 196.5,112.5 C 195.833,111.167 195.833,111.167 196.5,112.5 Z"/></g>
<g><path style="opacity:0.016" fill="#000000" d="M 602.5,111.5 C 603.833,112.167 603.833,112.167 602.5,111.5 Z"/></g>
<g><path style="opacity:0.016" fill="#000000" d="M 193.5,112.5 C 194.833,113.167 194.833,113.167 193.5,112.5 Z"/></g>
<g><path style="opacity:0.016" fill="#000000" d="M 604.5,112.5 C 605.833,113.167 605.833,113.167 604.5,112.5 Z"/></g>
<g><path style="opacity:0.016" fill="#000000" d="M 190.5,114.5 C 191.833,115.167 191.833,115.167 190.5,114.5 Z"/></g>
<g><path style="opacity:0.016" fill="#000000" d="M 607.5,114.5 C 608.833,115.167 608.833,115.167 607.5,114.5 Z"/></g>
<g><path style="opacity:0.016" fill="#000000" d="M 187.5,116.5 C 188.833,117.167 188.833,117.167 187.5,116.5 Z"/></g>
<g><path style="opacity:0.016" fill="#000000" d="M 610.5,116.5 C 611.833,117.167 611.833,117.167 610.5,116.5 Z"/></g>
<g><path style="opacity:0.016" fill="#000000" d="M 184.5,118.5 C 185.833,119.167 185.833,119.167 184.5,118.5 Z"/></g>
<g><path style="opacity:0.016" fill="#000000" d="M 614.5,119.5 C 613.833,118.167 613.833,118.167 614.5,119.5 Z"/></g>
<g><path style="opacity:0.016" fill="#000000" d="M 184.5,119.5 C 184.5,119.833 184.5,120.167 184.5,120.5C 183.83,120.019 183.83,119.685 184.5,119.5 Z"/></g>
<g><path style="opacity:0.016" fill="#000000" d="M 614.5,119.5 C 615.833,120.167 615.833,120.167 614.5,119.5 Z"/></g>
<g><path style="opacity:0.016" fill="#000000" d="M 181.5,120.5 C 182.833,121.167 182.833,121.167 181.5,120.5 Z"/></g>
<g><path style="opacity:0.016" fill="#000000" d="M 617.5,121.5 C 616.833,120.167 616.833,120.167 617.5,121.5 Z"/></g>
<g><path style="opacity:0.016" fill="#000000" d="M 181.5,121.5 C 181.5,121.833 181.5,122.167 181.5,122.5C 180.83,122.019 180.83,121.685 181.5,121.5 Z"/></g>
<g><path style="opacity:0.016" fill="#000000" d="M 617.5,121.5 C 618.833,122.167 618.833,122.167 617.5,121.5 Z"/></g>
<g><path style="opacity:0.016" fill="#000000" d="M 177.5,123.5 C 178.833,124.167 178.833,124.167 177.5,123.5 Z"/></g>
<g><path style="opacity:0.016" fill="#000000" d="M 621.5,124.5 C 620.833,123.167 620.833,123.167 621.5,124.5 Z"/></g>
<g><path style="opacity:0.016" fill="#000000" d="M 177.5,124.5 C 177.5,124.833 177.5,125.167 177.5,125.5C 176.83,125.019 176.83,124.685 177.5,124.5 Z"/></g>
<g><path style="opacity:0.016" fill="#000000" d="M 621.5,124.5 C 622.833,125.167 622.833,125.167 621.5,124.5 Z"/></g>
<g><path style="opacity:0.016" fill="#000000" d="M 173.5,126.5 C 174.833,127.167 174.833,127.167 173.5,126.5 Z"/></g>
<g><path style="opacity:0.016" fill="#000000" d="M 625.5,127.5 C 624.833,126.167 624.833,126.167 625.5,127.5 Z"/></g>
<g><path style="opacity:0.016" fill="#000000" d="M 173.5,127.5 C 172.833,128.167 172.833,128.167 173.5,127.5 Z"/></g>
<g><path style="opacity:0.016" fill="#000000" d="M 625.5,127.5 C 626.167,127.5 626.5,127.833 626.5,128.5C 626.167,128.167 625.833,127.833 625.5,127.5 Z"/></g>
<g><path style="opacity:0.016" fill="#000000" d="M 172.5,128.5 C 172.5,128.833 172.5,129.167 172.5,129.5C 171.83,129.019 171.83,128.685 172.5,128.5 Z"/></g>
<g><path style="opacity:0.016" fill="#000000" d="M 626.5,128.5 C 627.833,129.167 627.833,129.167 626.5,128.5 Z"/></g>
<g><path style="opacity:0.016" fill="#000000" d="M 167.5,131.5 C 168.833,132.167 168.833,132.167 167.5,131.5 Z"/></g>
<g><path style="opacity:0.016" fill="#000000" d="M 167.5,132.5 C 166.833,133.167 166.833,133.167 167.5,132.5 Z"/></g>
<g><path style="opacity:0.016" fill="#000000" d="M 631.5,132.5 C 632.833,133.167 632.833,133.167 631.5,132.5 Z"/></g>
<g><path style="opacity:0.016" fill="#000000" d="M 633.5,134.5 C 634.833,135.167 634.833,135.167 633.5,134.5 Z"/></g>
<g><path style="opacity:0.016" fill="#000000" d="M 648.5,149.5 C 647.833,148.167 647.833,148.167 648.5,149.5 Z"/></g>
<g><path style="opacity:0.016" fill="#000000" d="M 149.5,149.5 C 150.833,150.167 150.833,150.167 149.5,149.5 Z"/></g>
<g><path style="opacity:0.016" fill="#000000" d="M 648.5,149.5 C 649.167,149.5 649.5,149.833 649.5,150.5C 649.167,150.167 648.833,149.833 648.5,149.5 Z"/></g>
<g><path style="opacity:0.016" fill="#000000" d="M 149.5,150.5 C 148.833,151.167 148.833,151.167 149.5,150.5 Z"/></g>
<g><path style="opacity:0.016" fill="#000000" d="M 649.5,150.5 C 650.833,151.167 650.833,151.167 649.5,150.5 Z"/></g>
<g><path style="opacity:0.016" fill="#000000" d="M 146.5,155.5 C 145.833,154.167 145.833,154.167 146.5,155.5 Z"/></g>
<g><path style="opacity:0.016" fill="#000000" d="M 653.5,155.5 C 652.833,154.167 652.833,154.167 653.5,155.5 Z"/></g>
<g><path style="opacity:0.016" fill="#000000" d="M 145.5,155.5 C 144.833,156.167 144.833,156.167 145.5,155.5 Z"/></g>
<g><path style="opacity:0.016" fill="#000000" d="M 653.5,155.5 C 654.833,156.167 654.833,156.167 653.5,155.5 Z"/></g>
<g><path style="opacity:0.016" fill="#000000" d="M 143.5,159.5 C 142.833,158.167 142.833,158.167 143.5,159.5 Z"/></g>
<g><path style="opacity:0.016" fill="#000000" d="M 656.5,159.5 C 655.833,158.167 655.833,158.167 656.5,159.5 Z"/></g>
<g><path style="opacity:0.016" fill="#000000" d="M 142.5,159.5 C 141.833,160.167 141.833,160.167 142.5,159.5 Z"/></g>
<g><path style="opacity:0.016" fill="#000000" d="M 656.5,159.5 C 657.833,160.167 657.833,160.167 656.5,159.5 Z"/></g>
<g><path style="opacity:0.016" fill="#000000" d="M 659.5,163.5 C 658.833,162.167 658.833,162.167 659.5,163.5 Z"/></g>
<g><path style="opacity:0.016" fill="#000000" d="M 659.5,163.5 C 660.833,164.167 660.833,164.167 659.5,163.5 Z"/></g>
<g><path style="opacity:0.016" fill="#000000" d="M 138.5,166.5 C 137.833,165.167 137.833,165.167 138.5,166.5 Z"/></g>
<g><path style="opacity:0.016" fill="#000000" d="M 661.5,166.5 C 660.833,165.167 660.833,165.167 661.5,166.5 Z"/></g>
<g><path style="opacity:0.016" fill="#000000" d="M 137.5,166.5 C 136.833,167.167 136.833,167.167 137.5,166.5 Z"/></g>
<g><path style="opacity:0.016" fill="#000000" d="M 661.5,166.5 C 662.833,167.167 662.833,167.167 661.5,166.5 Z"/></g>
<g><path style="opacity:0.016" fill="#000000" d="M 136.5,169.5 C 135.833,168.167 135.833,168.167 136.5,169.5 Z"/></g>
<g><path style="opacity:0.016" fill="#000000" d="M 662.5,168.5 C 663.833,169.167 663.833,169.167 662.5,168.5 Z"/></g>
<g><path style="opacity:0.016" fill="#000000" d="M 133.5,171.5 C 134.833,172.167 134.833,172.167 133.5,171.5 Z"/></g>
<g><path style="opacity:0.016" fill="#000000" d="M 664.5,171.5 C 665.833,172.167 665.833,172.167 664.5,171.5 Z"/></g>
<g><path style="opacity:0.016" fill="#000000" d="M 131.5,174.5 C 132.833,175.167 132.833,175.167 131.5,174.5 Z"/></g>
<g><path style="opacity:0.016" fill="#000000" d="M 666.5,174.5 C 667.833,175.167 667.833,175.167 666.5,174.5 Z"/></g>
<g><path style="opacity:0.016" fill="#000000" d="M 130.5,176.5 C 131.833,177.167 131.833,177.167 130.5,176.5 Z"/></g>
<g><path style="opacity:0.016" fill="#000000" d="M 667.5,176.5 C 668.833,177.167 668.833,177.167 667.5,176.5 Z"/></g>
<g><path style="opacity:0.016" fill="#000000" d="M 129.5,178.5 C 130.833,179.167 130.833,179.167 129.5,178.5 Z"/></g>
<g><path style="opacity:0.016" fill="#000000" d="M 668.5,178.5 C 669.833,179.167 669.833,179.167 668.5,178.5 Z"/></g>
<g><path style="opacity:0.016" fill="#000000" d="M 128.5,180.5 C 129.833,181.167 129.833,181.167 128.5,180.5 Z"/></g>
<g><path style="opacity:0.016" fill="#000000" d="M 669.5,180.5 C 670.833,181.167 670.833,181.167 669.5,180.5 Z"/></g>
<g><path style="opacity:0.016" fill="#000000" d="M 128.5,183.5 C 127.833,182.167 127.833,182.167 128.5,183.5 Z"/></g>
<g><path style="opacity:0.016" fill="#000000" d="M 127.5,185.5 C 126.833,184.167 126.833,184.167 127.5,185.5 Z"/></g>
<g><path style="opacity:0.016" fill="#000000" d="M 125.5,186.5 C 126.833,187.167 126.833,187.167 125.5,186.5 Z"/></g>
<g><path style="opacity:0.016" fill="#000000" d="M 672.5,186.5 C 673.833,187.167 673.833,187.167 672.5,186.5 Z"/></g>
<g><path style="opacity:0.016" fill="#000000" d="M 124.5,188.5 C 125.833,189.167 125.833,189.167 124.5,188.5 Z"/></g>
<g><path style="opacity:0.016" fill="#000000" d="M 673.5,188.5 C 674.833,189.167 674.833,189.167 673.5,188.5 Z"/></g>
<g><path style="opacity:0.016" fill="#000000" d="M 123.5,190.5 C 124.833,191.167 124.833,191.167 123.5,190.5 Z"/></g>
<g><path style="opacity:0.016" fill="#000000" d="M 674.5,190.5 C 675.833,191.167 675.833,191.167 674.5,190.5 Z"/></g>
<g><path style="opacity:0.016" fill="#000000" d="M 122.5,192.5 C 123.833,193.167 123.833,193.167 122.5,192.5 Z"/></g>
<g><path style="opacity:0.016" fill="#000000" d="M 675.5,192.5 C 676.833,193.167 676.833,193.167 675.5,192.5 Z"/></g>
<g><path style="opacity:0.016" fill="#000000" d="M 676.5,194.5 C 677.525,194.897 677.692,195.563 677,196.5C 676.536,195.906 676.369,195.239 676.5,194.5 Z"/></g>
<g><path style="opacity:0.016" fill="#000000" d="M 122.5,195.5 C 121.833,196.167 121.833,196.167 122.5,195.5 Z"/></g>
<g><path style="opacity:0.016" fill="#000000" d="M 120.5,197.5 C 121.833,198.167 121.833,198.167 120.5,197.5 Z"/></g>
<g><path style="opacity:0.016" fill="#000000" d="M 677.5,197.5 C 678.833,198.167 678.833,198.167 677.5,197.5 Z"/></g>
<g><path style="opacity:0.016" fill="#000000" d="M 678.5,199.5 C 679.525,199.897 679.692,200.563 679,201.5C 678.536,200.906 678.369,200.239 678.5,199.5 Z"/></g>
<g><path style="opacity:0.016" fill="#000000" d="M 119.5,200.5 C 120.833,201.167 120.833,201.167 119.5,200.5 Z"/></g>
<g><path style="opacity:0.016" fill="#000000" d="M 119.5,204.5 C 118.475,204.103 118.308,203.437 119,202.5C 119.464,203.094 119.631,203.761 119.5,204.5 Z"/></g>
<g><path style="opacity:0.016" fill="#000000" d="M 679.5,202.5 C 680.525,202.897 680.692,203.563 680,204.5C 679.536,203.906 679.369,203.239 679.5,202.5 Z"/></g>
<g><path style="opacity:0.016" fill="#000000" d="M 117.5,205.5 C 118.525,205.897 118.692,206.563 118,207.5C 117.536,206.906 117.369,206.239 117.5,205.5 Z"/></g>
<g><path style="opacity:0.016" fill="#000000" d="M 680.5,205.5 C 681.833,206.167 681.833,206.167 680.5,205.5 Z"/></g>
<g><path style="opacity:0.016" fill="#000000" d="M 116.5,208.5 C 117.525,208.897 117.692,209.563 117,210.5C 116.536,209.906 116.369,209.239 116.5,208.5 Z"/></g>
<g><path style="opacity:0.016" fill="#000000" d="M 681.5,208.5 C 682.525,208.897 682.692,209.563 682,210.5C 681.536,209.906 681.369,209.239 681.5,208.5 Z"/></g>
<g><path style="opacity:0.016" fill="#000000" d="M 682.5,211.5 C 683.525,211.897 683.692,212.563 683,213.5C 682.536,212.906 682.369,212.239 682.5,211.5 Z"/></g>
<g><path style="opacity:0.016" fill="#000000" d="M 115.5,212.5 C 116.525,212.897 116.692,213.563 116,214.5C 115.536,213.906 115.369,213.239 115.5,212.5 Z"/></g>
<g><path style="opacity:0.016" fill="#000000" d="M 683.5,215.5 C 684.833,216.167 684.833,216.167 683.5,215.5 Z"/></g>
<g><path style="opacity:0.016" fill="#000000" d="M 114.5,216.5 C 115.833,217.167 115.833,217.167 114.5,216.5 Z"/></g>
<g><path style="opacity:0.016" fill="#000000" d="M 684.5,218.5 C 685.525,218.897 685.692,219.563 685,220.5C 684.536,219.906 684.369,219.239 684.5,218.5 Z"/></g>
<g><path style="opacity:0.016" fill="#000000" d="M 113.5,219.5 C 114.525,219.897 114.692,220.563 114,221.5C 113.536,220.906 113.369,220.239 113.5,219.5 Z"/></g>
<g><path style="opacity:0.016" fill="#000000" d="M 685.5,222.5 C 686.573,223.251 686.74,224.251 686,225.5C 685.517,224.552 685.351,223.552 685.5,222.5 Z"/></g>
<g><path style="opacity:0.016" fill="#000000" d="M 112.5,223.5 C 113.573,224.251 113.74,225.251 113,226.5C 112.517,225.552 112.351,224.552 112.5,223.5 Z"/></g>
<g><path style="opacity:0.016" fill="#000000" d="M 686.5,227.5 C 687.573,228.251 687.74,229.251 687,230.5C 686.517,229.552 686.351,228.552 686.5,227.5 Z"/></g>
<g><path style="opacity:0.016" fill="#000000" d="M 111.5,228.5 C 112.573,229.251 112.74,230.251 112,231.5C 111.517,230.552 111.351,229.552 111.5,228.5 Z"/></g>
<g><path style="opacity:0.016" fill="#000000" d="M 687.5,232.5 C 688.598,233.601 688.765,234.934 688,236.5C 687.51,235.207 687.343,233.873 687.5,232.5 Z"/></g>
<g><path style="opacity:0.016" fill="#000000" d="M 110.5,234.5 C 111.598,235.601 111.765,236.934 111,238.5C 110.51,237.207 110.343,235.873 110.5,234.5 Z"/></g>
<g><path style="opacity:0.016" fill="#000000" d="M 688.5,238.5 C 689.613,239.946 689.78,241.613 689,243.5C 688.506,241.866 688.34,240.199 688.5,238.5 Z"/></g>
<g><path style="opacity:0.016" fill="#000000" d="M 109.5,241.5 C 110.613,242.946 110.78,244.613 110,246.5C 109.506,244.866 109.34,243.199 109.5,241.5 Z"/></g>
<g><path style="opacity:0.016" fill="#000000" d="M 689.5,246.5 C 690.634,248.966 690.801,251.633 690,254.5C 689.503,251.854 689.336,249.187 689.5,246.5 Z"/></g>
<g><path style="opacity:0.016" fill="#000000" d="M 108.5,252.5 C 109.833,253.167 109.833,253.167 108.5,252.5 Z"/></g>
<g><path style="opacity:0.016" fill="#000000" d="M 108.5,254.5 C 109.656,261.989 109.822,269.655 109,277.5C 108.5,269.841 108.334,262.174 108.5,254.5 Z"/></g>
<g><path style="opacity:0.016" fill="#000000" d="M 690.5,261.5 C 691.65,266.316 691.816,271.316 691,276.5C 690.501,271.511 690.334,266.511 690.5,261.5 Z"/></g>
<g><path style="opacity:0.016" fill="#000000" d="M 108.5,278.5 C 109.833,279.167 109.833,279.167 108.5,278.5 Z"/></g>
<g><path style="opacity:0.016" fill="#000000" d="M 110.5,280.5 C 109.833,281.167 109.833,281.167 110.5,280.5 Z"/></g>
<g><path style="opacity:0.016" fill="#000000" d="M 689.5,283.5 C 690.634,285.966 690.801,288.633 690,291.5C 689.503,288.854 689.336,286.187 689.5,283.5 Z"/></g>
<g><path style="opacity:0.016" fill="#000000" d="M 110.5,290.5 C 109.402,289.399 109.235,288.066 110,286.5C 110.49,287.793 110.657,289.127 110.5,290.5 Z"/></g>
<g><path style="opacity:0.016" fill="#000000" d="M 111.5,298.5 C 110.402,297.399 110.235,296.066 111,294.5C 111.49,295.793 111.657,297.127 111.5,298.5 Z"/></g>
<g><path style="opacity:0.016" fill="#000000" d="M 688.5,295.5 C 689.613,296.946 689.78,298.613 689,300.5C 688.506,298.866 688.34,297.199 688.5,295.5 Z"/></g>
<g><path style="opacity:0.016" fill="#000000" d="M 112.5,304.5 C 111.475,304.103 111.308,303.437 112,302.5C 112.464,303.094 112.631,303.761 112.5,304.5 Z"/></g>
<g><path style="opacity:0.016" fill="#000000" d="M 687.5,303.5 C 688.598,304.601 688.765,305.934 688,307.5C 687.51,306.207 687.343,304.873 687.5,303.5 Z"/></g>
<g><path style="opacity:0.016" fill="#000000" d="M 113.5,307.5 C 113.649,308.552 113.483,309.552 113,310.5C 112.26,309.251 112.427,308.251 113.5,307.5 Z"/></g>
<g><path style="opacity:0.016" fill="#000000" d="M 686.5,309.5 C 687.598,310.601 687.765,311.934 687,313.5C 686.51,312.207 686.343,310.873 686.5,309.5 Z"/></g>
<g><path style="opacity:0.016" fill="#000000" d="M 113.5,312.5 C 114.573,313.251 114.74,314.251 114,315.5C 113.517,314.552 113.351,313.552 113.5,312.5 Z"/></g>
<g><path style="opacity:0.016" fill="#000000" d="M 685.5,315.5 C 686.573,316.251 686.74,317.251 686,318.5C 685.517,317.552 685.351,316.552 685.5,315.5 Z"/></g>
<g><path style="opacity:0.016" fill="#000000" d="M 114.5,317.5 C 115.525,317.897 115.692,318.563 115,319.5C 114.536,318.906 114.369,318.239 114.5,317.5 Z"/></g>
<g><path style="opacity:0.016" fill="#000000" d="M 684.5,320.5 C 685.573,321.251 685.74,322.251 685,323.5C 684.517,322.552 684.351,321.552 684.5,320.5 Z"/></g>
<g><path style="opacity:0.016" fill="#000000" d="M 115.5,321.5 C 116.525,321.897 116.692,322.563 116,323.5C 115.536,322.906 115.369,322.239 115.5,321.5 Z"/></g>
<g><path style="opacity:0.016" fill="#000000" d="M 116.5,325.5 C 117.525,325.897 117.692,326.563 117,327.5C 116.536,326.906 116.369,326.239 116.5,325.5 Z"/></g>
<g><path style="opacity:0.016" fill="#000000" d="M 683.5,325.5 C 684.833,326.167 684.833,326.167 683.5,325.5 Z"/></g>
<g><path style="opacity:0.016" fill="#000000" d="M 117.5,329.5 C 118.525,329.897 118.692,330.563 118,331.5C 117.536,330.906 117.369,330.239 117.5,329.5 Z"/></g>
<g><path style="opacity:0.016" fill="#000000" d="M 682.5,329.5 C 683.525,329.897 683.692,330.563 683,331.5C 682.536,330.906 682.369,330.239 682.5,329.5 Z"/></g>
<g><path style="opacity:0.016" fill="#000000" d="M 118.5,332.5 C 119.525,332.897 119.692,333.563 119,334.5C 118.536,333.906 118.369,333.239 118.5,332.5 Z"/></g>
<g><path style="opacity:0.016" fill="#000000" d="M 681.5,333.5 C 682.525,333.897 682.692,334.563 682,335.5C 681.536,334.906 681.369,334.239 681.5,333.5 Z"/></g>
<g><path style="opacity:0.016" fill="#000000" d="M 119.5,336.5 C 120.525,336.897 120.692,337.563 120,338.5C 119.536,337.906 119.369,337.239 119.5,336.5 Z"/></g>
<g><path style="opacity:0.016" fill="#000000" d="M 680.5,337.5 C 681.833,338.167 681.833,338.167 680.5,337.5 Z"/></g>
<g><path style="opacity:0.016" fill="#000000" d="M 120.5,339.5 C 121.525,339.897 121.692,340.563 121,341.5C 120.536,340.906 120.369,340.239 120.5,339.5 Z"/></g>
<g><path style="opacity:0.016" fill="#000000" d="M 679.5,340.5 C 680.525,340.897 680.692,341.563 680,342.5C 679.536,341.906 679.369,341.239 679.5,340.5 Z"/></g>
<g><path style="opacity:0.016" fill="#000000" d="M 121.5,342.5 C 122.525,342.897 122.692,343.563 122,344.5C 121.536,343.906 121.369,343.239 121.5,342.5 Z"/></g>
<g><path style="opacity:0.016" fill="#000000" d="M 678.5,344.5 C 679.833,345.167 679.833,345.167 678.5,344.5 Z"/></g>
<g><path style="opacity:0.016" fill="#000000" d="M 123.5,345.5 C 123.631,346.239 123.464,346.906 123,347.5C 122.308,346.563 122.475,345.897 123.5,345.5 Z"/></g>
<g><path style="opacity:0.016" fill="#000000" d="M 677.5,347.5 C 678.833,348.167 678.833,348.167 677.5,347.5 Z"/></g>
<g><path style="opacity:0.016" fill="#000000" d="M 123.5,348.5 C 124.833,349.167 124.833,349.167 123.5,348.5 Z"/></g>
<g><path style="opacity:0.016" fill="#000000" d="M 676.5,349.5 C 677.573,350.251 677.74,351.251 677,352.5C 676.517,351.552 676.351,350.552 676.5,349.5 Z"/></g>
<g><path style="opacity:0.016" fill="#000000" d="M 125.5,351.5 C 124.833,352.167 124.833,352.167 125.5,351.5 Z"/></g>
<g><path style="opacity:0.016" fill="#000000" d="M 125.5,353.5 C 126.525,353.897 126.692,354.563 126,355.5C 125.536,354.906 125.369,354.239 125.5,353.5 Z"/></g>
<g><path style="opacity:0.016" fill="#000000" d="M 675.5,353.5 C 676.833,354.167 676.833,354.167 675.5,353.5 Z"/></g>
<g><path style="opacity:0.016" fill="#000000" d="M 126.5,356.5 C 127.833,357.167 127.833,357.167 126.5,356.5 Z"/></g>
<g><path style="opacity:0.016" fill="#000000" d="M 674.5,356.5 C 675.833,357.167 675.833,357.167 674.5,356.5 Z"/></g>
<g><path style="opacity:0.016" fill="#000000" d="M 673.5,357.5 C 673.833,357.5 674.167,357.5 674.5,357.5C 674.315,358.17 673.981,358.17 673.5,357.5 Z"/></g>
<g><path style="opacity:0.016" fill="#000000" d="M 127.5,359.5 C 128.833,360.167 128.833,360.167 127.5,359.5 Z"/></g>
<g><path style="opacity:0.016" fill="#000000" d="M 673.5,359.5 C 674.833,360.167 674.833,360.167 673.5,359.5 Z"/></g>
<g><path style="opacity:0.016" fill="#000000" d="M 129.5,362.5 C 128.833,361.167 128.833,361.167 129.5,362.5 Z"/></g>
<g><path style="opacity:0.016" fill="#000000" d="M 672.5,361.5 C 673.525,361.897 673.692,362.563 673,363.5C 672.536,362.906 672.369,362.239 672.5,361.5 Z"/></g>
<g><path style="opacity:0.016" fill="#000000" d="M 129.5,362.5 C 129.833,362.5 130.167,362.5 130.5,362.5C 130.167,365.167 129.833,365.167 129.5,362.5 Z"/></g>
<g><path style="opacity:0.016" fill="#000000" d="M 671.5,364.5 C 672.833,365.167 672.833,365.167 671.5,364.5 Z"/></g>
<g><path style="opacity:0.016" fill="#000000" d="M 130.5,366.5 C 131.833,367.167 131.833,367.167 130.5,366.5 Z"/></g>
<g><path style="opacity:0.016" fill="#000000" d="M 670.5,367.5 C 671.833,368.167 671.833,368.167 670.5,367.5 Z"/></g>
<g><path style="opacity:0.016" fill="#000000" d="M 131.5,368.5 C 132.833,369.167 132.833,369.167 131.5,368.5 Z"/></g>
<g><path style="opacity:0.016" fill="#000000" d="M 669.5,369.5 C 670.833,370.167 670.833,370.167 669.5,369.5 Z"/></g>
<g><path style="opacity:0.016" fill="#000000" d="M 132.5,371.5 C 133.833,372.167 133.833,372.167 132.5,371.5 Z"/></g>
<g><path style="opacity:0.016" fill="#000000" d="M 668.5,371.5 C 669.525,371.897 669.692,372.563 669,373.5C 668.536,372.906 668.369,372.239 668.5,371.5 Z"/></g>
<g><path style="opacity:0.016" fill="#000000" d="M 134.5,374.5 C 133.833,373.167 133.833,373.167 134.5,374.5 Z"/></g>
<g><path style="opacity:0.016" fill="#000000" d="M 667.5,374.5 C 668.833,375.167 668.833,375.167 667.5,374.5 Z"/></g>
<g><path style="opacity:0.016" fill="#000000" d="M 134.5,376.5 C 135.833,377.167 135.833,377.167 134.5,376.5 Z"/></g>
<g><path style="opacity:0.016" fill="#000000" d="M 666.5,376.5 C 667.525,376.897 667.692,377.563 667,378.5C 666.536,377.906 666.369,377.239 666.5,376.5 Z"/></g>
<g><path style="opacity:0.016" fill="#000000" d="M 135.5,378.5 C 136.833,379.167 136.833,379.167 135.5,378.5 Z"/></g>
<g><path style="opacity:0.016" fill="#000000" d="M 665.5,379.5 C 666.833,380.167 666.833,380.167 665.5,379.5 Z"/></g>
<g><path style="opacity:0.016" fill="#000000" d="M 137.5,380.5 C 137.631,381.239 137.464,381.906 137,382.5C 136.308,381.563 136.475,380.897 137.5,380.5 Z"/></g>
<g><path style="opacity:0.016" fill="#000000" d="M 664.5,381.5 C 665.525,381.897 665.692,382.563 665,383.5C 664.536,382.906 664.369,382.239 664.5,381.5 Z"/></g>
<g><path style="opacity:0.016" fill="#000000" d="M 138.5,384.5 C 137.833,383.167 137.833,383.167 138.5,384.5 Z"/></g>
<g><path style="opacity:0.016" fill="#000000" d="M 138.5,384.5 C 138.833,384.5 139.167,384.5 139.5,384.5C 139.167,387.167 138.833,387.167 138.5,384.5 Z"/></g>
<g><path style="opacity:0.016" fill="#000000" d="M 663.5,384.5 C 664.833,385.167 664.833,385.167 663.5,384.5 Z"/></g>
<g><path style="opacity:0.016" fill="#000000" d="M 662.5,386.5 C 663.833,387.167 663.833,387.167 662.5,386.5 Z"/></g>
<g><path style="opacity:0.016" fill="#000000" d="M 139.5,388.5 C 140.833,389.167 140.833,389.167 139.5,388.5 Z"/></g>
<g><path style="opacity:0.016" fill="#000000" d="M 661.5,389.5 C 662.833,390.167 662.833,390.167 661.5,389.5 Z"/></g>
<g><path style="opacity:0.016" fill="#000000" d="M 140.5,390.5 C 141.833,391.167 141.833,391.167 140.5,390.5 Z"/></g>
<g><path style="opacity:0.016" fill="#000000" d="M 660.5,391.5 C 661.833,392.167 661.833,392.167 660.5,391.5 Z"/></g>
<g><path style="opacity:0.016" fill="#000000" d="M 142.5,392.5 C 142.631,393.239 142.464,393.906 142,394.5C 141.308,393.563 141.475,392.897 142.5,392.5 Z"/></g>
<g><path style="opacity:0.016" fill="#000000" d="M 659.5,393.5 C 660.525,393.897 660.692,394.563 660,395.5C 659.536,394.906 659.369,394.239 659.5,393.5 Z"/></g>
<g><path style="opacity:0.016" fill="#000000" d="M 142.5,395.5 C 143.833,396.167 143.833,396.167 142.5,395.5 Z"/></g>
<g><path style="opacity:0.016" fill="#000000" d="M 658.5,396.5 C 659.833,397.167 659.833,397.167 658.5,396.5 Z"/></g>
<g><path style="opacity:0.016" fill="#000000" d="M 144.5,398.5 C 143.833,397.167 143.833,397.167 144.5,398.5 Z"/></g>
<g><path style="opacity:0.016" fill="#000000" d="M 657.5,398.5 C 658.833,399.167 658.833,399.167 657.5,398.5 Z"/></g>
<g><path style="opacity:0.016" fill="#000000" d="M 144.5,400.5 C 145.833,401.167 145.833,401.167 144.5,400.5 Z"/></g>
<g><path style="opacity:0.016" fill="#000000" d="M 656.5,401.5 C 657.833,402.167 657.833,402.167 656.5,401.5 Z"/></g>
<g><path style="opacity:0.016" fill="#000000" d="M 145.5,402.5 C 146.833,403.167 146.833,403.167 145.5,402.5 Z"/></g>
<g><path style="opacity:0.016" fill="#000000" d="M 655.5,403.5 C 656.833,404.167 656.833,404.167 655.5,403.5 Z"/></g>
<g><path style="opacity:0.016" fill="#000000" d="M 146.5,404.5 C 147.833,405.167 147.833,405.167 146.5,404.5 Z"/></g>
<g><path style="opacity:0.016" fill="#000000" d="M 654.5,405.5 C 655.833,406.167 655.833,406.167 654.5,405.5 Z"/></g>
<g><path style="opacity:0.016" fill="#000000" d="M 147.5,407.5 C 148.833,408.167 148.833,408.167 147.5,407.5 Z"/></g>
<g><path style="opacity:0.016" fill="#000000" d="M 653.5,407.5 C 654.525,407.897 654.692,408.563 654,409.5C 653.536,408.906 653.369,408.239 653.5,407.5 Z"/></g>
<g><path style="opacity:0.016" fill="#000000" d="M 148.5,409.5 C 149.833,410.167 149.833,410.167 148.5,409.5 Z"/></g>
<g><path style="opacity:0.016" fill="#000000" d="M 652.5,410.5 C 653.833,411.167 653.833,411.167 652.5,410.5 Z"/></g>
<g><path style="opacity:0.016" fill="#000000" d="M 150.5,412.5 C 149.833,411.167 149.833,411.167 150.5,412.5 Z"/></g>
<g><path style="opacity:0.016" fill="#000000" d="M 651.5,411.5 C 651.833,411.5 652.167,411.5 652.5,411.5C 652.167,414.167 651.833,414.167 651.5,411.5 Z"/></g>
<g><path style="opacity:0.016" fill="#000000" d="M 650.5,415.5 C 651.833,416.167 651.833,416.167 650.5,415.5 Z"/></g>
<g><path style="opacity:0.016" fill="#000000" d="M 151.5,416.5 C 152.833,417.167 152.833,417.167 151.5,416.5 Z"/></g>
<g><path style="opacity:0.016" fill="#000000" d="M 649.5,417.5 C 650.833,418.167 650.833,418.167 649.5,417.5 Z"/></g>
<g><path style="opacity:0.016" fill="#000000" d="M 152.5,418.5 C 153.833,419.167 153.833,419.167 152.5,418.5 Z"/></g>
<g><path style="opacity:0.016" fill="#000000" d="M 648.5,419.5 C 649.833,420.167 649.833,420.167 648.5,419.5 Z"/></g>
<g><path style="opacity:0.016" fill="#000000" d="M 153.5,420.5 C 154.833,421.167 154.833,421.167 153.5,420.5 Z"/></g>
<g><path style="opacity:0.016" fill="#000000" d="M 647.5,421.5 C 648.833,422.167 648.833,422.167 647.5,421.5 Z"/></g>
<g><path style="opacity:0.016" fill="#000000" d="M 155.5,422.5 C 155.631,423.239 155.464,423.906 155,424.5C 154.308,423.563 154.475,422.897 155.5,422.5 Z"/></g>
<g><path style="opacity:0.016" fill="#000000" d="M 646.5,424.5 C 647.833,425.167 647.833,425.167 646.5,424.5 Z"/></g>
<g><path style="opacity:0.016" fill="#000000" d="M 156.5,425.5 C 155.833,426.167 155.833,426.167 156.5,425.5 Z"/></g>
<g><path style="opacity:0.016" fill="#000000" d="M 645.5,426.5 C 646.833,427.167 646.833,427.167 645.5,426.5 Z"/></g>
<g><path style="opacity:0.016" fill="#000000" d="M 157.5,427.5 C 156.833,428.167 156.833,428.167 157.5,427.5 Z"/></g>
<g><path style="opacity:0.016" fill="#000000" d="M 644.5,427.5 C 644.833,427.5 645.167,427.5 645.5,427.5C 645.167,430.167 644.833,430.167 644.5,427.5 Z"/></g>
<g><path style="opacity:0.016" fill="#000000" d="M 157.5,429.5 C 158.833,430.167 158.833,430.167 157.5,429.5 Z"/></g>
<g><path style="opacity:0.016" fill="#000000" d="M 643.5,430.5 C 644.833,431.167 644.833,431.167 643.5,430.5 Z"/></g>
<g><path style="opacity:0.016" fill="#000000" d="M 159.5,432.5 C 158.833,431.167 158.833,431.167 159.5,432.5 Z"/></g>
<g><path style="opacity:0.016" fill="#000000" d="M 642.5,433.5 C 643.833,434.167 643.833,434.167 642.5,433.5 Z"/></g>
<g><path style="opacity:0.016" fill="#000000" d="M 641.5,435.5 C 642.833,436.167 642.833,436.167 641.5,435.5 Z"/></g>
<g><path style="opacity:0.016" fill="#000000" d="M 160.5,436.5 C 161.833,437.167 161.833,437.167 160.5,436.5 Z"/></g>
<g><path style="opacity:0.016" fill="#000000" d="M 640.5,437.5 C 641.833,438.167 641.833,438.167 640.5,437.5 Z"/></g>
<g><path style="opacity:0.016" fill="#000000" d="M 161.5,438.5 C 162.833,439.167 162.833,439.167 161.5,438.5 Z"/></g>
<g><path style="opacity:0.016" fill="#000000" d="M 639.5,439.5 C 640.833,440.167 640.833,440.167 639.5,439.5 Z"/></g>
<g><path style="opacity:0.016" fill="#000000" d="M 162.5,440.5 C 163.833,441.167 163.833,441.167 162.5,440.5 Z"/></g>
<g><path style="opacity:0.016" fill="#000000" d="M 638.5,441.5 C 639.833,442.167 639.833,442.167 638.5,441.5 Z"/></g>
<g><path style="opacity:0.016" fill="#000000" d="M 163.5,442.5 C 164.833,443.167 164.833,443.167 163.5,442.5 Z"/></g>
<g><path style="opacity:0.016" fill="#000000" d="M 164.5,444.5 C 165.833,445.167 165.833,445.167 164.5,444.5 Z"/></g>
<g><path style="opacity:0.016" fill="#000000" d="M 637.5,444.5 C 638.833,445.167 638.833,445.167 637.5,444.5 Z"/></g>
<g><path style="opacity:0.016" fill="#000000" d="M 166.5,446.5 C 165.833,447.167 165.833,447.167 166.5,446.5 Z"/></g>
<g><path style="opacity:0.016" fill="#000000" d="M 636.5,446.5 C 637.833,447.167 637.833,447.167 636.5,446.5 Z"/></g>
<g><path style="opacity:0.016" fill="#000000" d="M 635.5,448.5 C 636.833,449.167 636.833,449.167 635.5,448.5 Z"/></g>
<g><path style="opacity:0.016" fill="#000000" d="M 634.5,450.5 C 635.833,451.167 635.833,451.167 634.5,450.5 Z"/></g>
<g><path style="opacity:0.016" fill="#000000" d="M 167.5,451.5 C 168.833,452.167 168.833,452.167 167.5,451.5 Z"/></g>
<g><path style="opacity:0.016" fill="#000000" d="M 633.5,451.5 C 633.833,451.5 634.167,451.5 634.5,451.5C 634.167,454.167 633.833,454.167 633.5,451.5 Z"/></g>
<g><path style="opacity:0.016" fill="#000000" d="M 168.5,453.5 C 169.833,454.167 169.833,454.167 168.5,453.5 Z"/></g>
<g><path style="opacity:0.016" fill="#000000" d="M 632.5,454.5 C 633.833,455.167 633.833,455.167 632.5,454.5 Z"/></g>
<g><path style="opacity:0.016" fill="#000000" d="M 169.5,455.5 C 170.833,456.167 170.833,456.167 169.5,455.5 Z"/></g>
<g><path style="opacity:0.016" fill="#000000" d="M 170.5,457.5 C 171.833,458.167 171.833,458.167 170.5,457.5 Z"/></g>
<g><path style="opacity:0.016" fill="#000000" d="M 171.5,459.5 C 172.833,460.167 172.833,460.167 171.5,459.5 Z"/></g>
<g><path style="opacity:0.016" fill="#000000" d="M 172.5,461.5 C 173.833,462.167 173.833,462.167 172.5,461.5 Z"/></g>
<g><path style="opacity:0.016" fill="#000000" d="M 629.5,461.5 C 630.833,462.167 630.833,462.167 629.5,461.5 Z"/></g>
<g><path style="opacity:0.016" fill="#000000" d="M 628.5,463.5 C 629.833,464.167 629.833,464.167 628.5,463.5 Z"/></g>
<g><path style="opacity:0.016" fill="#000000" d="M 175.5,464.5 C 175.631,465.239 175.464,465.906 175,466.5C 174.308,465.563 174.475,464.897 175.5,464.5 Z"/></g>
<g><path style="opacity:0.016" fill="#000000" d="M 627.5,465.5 C 628.833,466.167 628.833,466.167 627.5,465.5 Z"/></g>
<g><path style="opacity:0.016" fill="#000000" d="M 175.5,467.5 C 176.833,468.167 176.833,468.167 175.5,467.5 Z"/></g>
<g><path style="opacity:0.016" fill="#000000" d="M 626.5,467.5 C 627.833,468.167 627.833,468.167 626.5,467.5 Z"/></g>
<g><path style="opacity:0.016" fill="#000000" d="M 176.5,469.5 C 177.833,470.167 177.833,470.167 176.5,469.5 Z"/></g>
<g><path style="opacity:0.016" fill="#000000" d="M 625.5,469.5 C 626.833,470.167 626.833,470.167 625.5,469.5 Z"/></g>
<g><path style="opacity:0.016" fill="#000000" d="M 177.5,471.5 C 178.833,472.167 178.833,472.167 177.5,471.5 Z"/></g>
<g><path style="opacity:0.016" fill="#000000" d="M 624.5,471.5 C 625.833,472.167 625.833,472.167 624.5,471.5 Z"/></g>
<g><path style="opacity:0.016" fill="#000000" d="M 178.5,473.5 C 179.833,474.167 179.833,474.167 178.5,473.5 Z"/></g>
<g><path style="opacity:0.016" fill="#000000" d="M 623.5,473.5 C 624.833,474.167 624.833,474.167 623.5,473.5 Z"/></g>
<g><path style="opacity:0.016" fill="#000000" d="M 179.5,475.5 C 180.833,476.167 180.833,476.167 179.5,475.5 Z"/></g>
<g><path style="opacity:0.016" fill="#000000" d="M 622.5,475.5 C 623.833,476.167 623.833,476.167 622.5,475.5 Z"/></g>
<g><path style="opacity:0.016" fill="#000000" d="M 180.5,477.5 C 181.833,478.167 181.833,478.167 180.5,477.5 Z"/></g>
<g><path style="opacity:0.016" fill="#000000" d="M 621.5,477.5 C 622.833,478.167 622.833,478.167 621.5,477.5 Z"/></g>
<g><path style="opacity:0.016" fill="#000000" d="M 182.5,480.5 C 181.833,479.167 181.833,479.167 182.5,480.5 Z"/></g>
<g><path style="opacity:0.016" fill="#000000" d="M 620.5,479.5 C 621.833,480.167 621.833,480.167 620.5,479.5 Z"/></g>
<g><path style="opacity:0.016" fill="#000000" d="M 182.5,480.5 C 182.833,480.5 183.167,480.5 183.5,480.5C 183.167,483.167 182.833,483.167 182.5,480.5 Z"/></g>
<g><path style="opacity:0.016" fill="#000000" d="M 619.5,481.5 C 620.833,482.167 620.833,482.167 619.5,481.5 Z"/></g>
<g><path style="opacity:0.016" fill="#000000" d="M 184.5,483.5 C 183.833,484.167 183.833,484.167 184.5,483.5 Z"/></g>
<g><path style="opacity:0.016" fill="#000000" d="M 618.5,483.5 C 619.833,484.167 619.833,484.167 618.5,483.5 Z"/></g>
<g><path style="opacity:0.016" fill="#000000" d="M 185.5,485.5 C 184.833,486.167 184.833,486.167 185.5,485.5 Z"/></g>
<g><path style="opacity:0.016" fill="#000000" d="M 617.5,485.5 C 618.833,486.167 618.833,486.167 617.5,485.5 Z"/></g>
<g><path style="opacity:0.016" fill="#000000" d="M 185.5,487.5 C 186.833,488.167 186.833,488.167 185.5,487.5 Z"/></g>
<g><path style="opacity:0.016" fill="#000000" d="M 616.5,487.5 C 617.833,488.167 617.833,488.167 616.5,487.5 Z"/></g>
<g><path style="opacity:0.016" fill="#000000" d="M 186.5,489.5 C 187.833,490.167 187.833,490.167 186.5,489.5 Z"/></g>
<g><path style="opacity:0.016" fill="#000000" d="M 615.5,489.5 C 616.833,490.167 616.833,490.167 615.5,489.5 Z"/></g>
<g><path style="opacity:0.016" fill="#000000" d="M 187.5,491.5 C 188.833,492.167 188.833,492.167 187.5,491.5 Z"/></g>
<g><path style="opacity:0.016" fill="#000000" d="M 614.5,491.5 C 615.833,492.167 615.833,492.167 614.5,491.5 Z"/></g>
<g><path style="opacity:0.016" fill="#000000" d="M 613.5,493.5 C 614.833,494.167 614.833,494.167 613.5,493.5 Z"/></g>
<g><path style="opacity:0.016" fill="#000000" d="M 191.5,496.5 C 190.833,497.167 190.833,497.167 191.5,496.5 Z"/></g>
<g><path style="opacity:0.016" fill="#000000" d="M 191.5,498.5 C 192.833,499.167 192.833,499.167 191.5,498.5 Z"/></g>
<g><path style="opacity:0.016" fill="#000000" d="M 192.5,500.5 C 193.833,501.167 193.833,501.167 192.5,500.5 Z"/></g>
<g><path style="opacity:0.016" fill="#000000" d="M 609.5,500.5 C 610.833,501.167 610.833,501.167 609.5,500.5 Z"/></g>
<g><path style="opacity:0.016" fill="#000000" d="M 608.5,501.5 C 608.833,501.5 609.167,501.5 609.5,501.5C 609.167,504.167 608.833,504.167 608.5,501.5 Z"/></g>
<g><path style="opacity:0.016" fill="#000000" d="M 193.5,502.5 C 194.833,503.167 194.833,503.167 193.5,502.5 Z"/></g>
<g><path style="opacity:0.016" fill="#000000" d="M 194.5,504.5 C 195.833,505.167 195.833,505.167 194.5,504.5 Z"/></g>
<g><path style="opacity:0.016" fill="#000000" d="M 607.5,504.5 C 608.833,505.167 608.833,505.167 607.5,504.5 Z"/></g>
<g><path style="opacity:0.016" fill="#000000" d="M 606.5,506.5 C 607.833,507.167 607.833,507.167 606.5,506.5 Z"/></g>
<g><path style="opacity:0.016" fill="#000000" d="M 605.5,507.5 C 605.833,507.5 606.167,507.5 606.5,507.5C 606.167,510.167 605.833,510.167 605.5,507.5 Z"/></g>
<g><path style="opacity:0.016" fill="#000000" d="M 198.5,510.5 C 198.833,510.5 199.167,510.5 199.5,510.5C 199.167,513.167 198.833,513.167 198.5,510.5 Z"/></g>
<g><path style="opacity:0.016" fill="#000000" d="M 603.5,511.5 C 604.833,512.167 604.833,512.167 603.5,511.5 Z"/></g>
<g><path style="opacity:0.016" fill="#000000" d="M 199.5,513.5 C 200.833,514.167 200.833,514.167 199.5,513.5 Z"/></g>
<g><path style="opacity:0.016" fill="#000000" d="M 602.5,513.5 C 603.833,514.167 603.833,514.167 602.5,513.5 Z"/></g>
<g><path style="opacity:0.016" fill="#000000" d="M 201.5,516.5 C 200.833,515.167 200.833,515.167 201.5,516.5 Z"/></g>
<g><path style="opacity:0.016" fill="#000000" d="M 601.5,515.5 C 602.833,516.167 602.833,516.167 601.5,515.5 Z"/></g>
<g><path style="opacity:0.016" fill="#000000" d="M 600.5,517.5 C 601.833,518.167 601.833,518.167 600.5,517.5 Z"/></g>
<g><path style="opacity:0.016" fill="#000000" d="M 203.5,518.5 C 202.833,519.167 202.833,519.167 203.5,518.5 Z"/></g>
<g><path style="opacity:0.016" fill="#000000" d="M 203.5,520.5 C 204.833,521.167 204.833,521.167 203.5,520.5 Z"/></g>
<g><path style="opacity:0.016" fill="#000000" d="M 204.5,522.5 C 205.833,523.167 205.833,523.167 204.5,522.5 Z"/></g>
<g><path style="opacity:0.016" fill="#000000" d="M 597.5,522.5 C 598.833,523.167 598.833,523.167 597.5,522.5 Z"/></g>
<g><path style="opacity:0.016" fill="#000000" d="M 596.5,524.5 C 597.833,525.167 597.833,525.167 596.5,524.5 Z"/></g>
<g><path style="opacity:0.016" fill="#000000" d="M 595.5,525.5 C 595.833,525.5 596.167,525.5 596.5,525.5C 596.167,528.167 595.833,528.167 595.5,525.5 Z"/></g>
<g><path style="opacity:0.016" fill="#000000" d="M 207.5,527.5 C 208.833,528.167 208.833,528.167 207.5,527.5 Z"/></g>
<g><path style="opacity:0.016" fill="#000000" d="M 208.5,529.5 C 209.833,530.167 209.833,530.167 208.5,529.5 Z"/></g>
<g><path style="opacity:0.016" fill="#000000" d="M 593.5,529.5 C 594.833,530.167 594.833,530.167 593.5,529.5 Z"/></g>
<g><path style="opacity:0.016" fill="#000000" d="M 592.5,531.5 C 593.833,532.167 593.833,532.167 592.5,531.5 Z"/></g>
<g><path style="opacity:0.016" fill="#000000" d="M 211.5,532.5 C 210.833,533.167 210.833,533.167 211.5,532.5 Z"/></g>
<g><path style="opacity:0.016" fill="#000000" d="M 211.5,534.5 C 212.833,535.167 212.833,535.167 211.5,534.5 Z"/></g>
<g><path style="opacity:0.016" fill="#000000" d="M 212.5,536.5 C 213.833,537.167 213.833,537.167 212.5,536.5 Z"/></g>
<g><path style="opacity:0.016" fill="#000000" d="M 589.5,536.5 C 590.833,537.167 590.833,537.167 589.5,536.5 Z"/></g>
<g><path style="opacity:0.016" fill="#000000" d="M 588.5,538.5 C 589.833,539.167 589.833,539.167 588.5,538.5 Z"/></g>
<g><path style="opacity:0.016" fill="#000000" d="M 215.5,540.5 C 214.833,539.167 214.833,539.167 215.5,540.5 Z"/></g>
<g><path style="opacity:0.016" fill="#000000" d="M 215.5,540.5 C 215.833,540.5 216.167,540.5 216.5,540.5C 216.167,543.167 215.833,543.167 215.5,540.5 Z"/></g>
<g><path style="opacity:0.016" fill="#000000" d="M 586.5,541.5 C 587.833,542.167 587.833,542.167 586.5,541.5 Z"/></g>
<g><path style="opacity:0.016" fill="#000000" d="M 585.5,543.5 C 586.833,544.167 586.833,544.167 585.5,543.5 Z"/></g>
<g><path style="opacity:0.016" fill="#000000" d="M 217.5,544.5 C 218.833,545.167 218.833,545.167 217.5,544.5 Z"/></g>
<g><path style="opacity:0.016" fill="#000000" d="M 218.5,546.5 C 219.833,547.167 219.833,547.167 218.5,546.5 Z"/></g>
<g><path style="opacity:0.016" fill="#000000" d="M 583.5,546.5 C 584.833,547.167 584.833,547.167 583.5,546.5 Z"/></g>
<g><path style="opacity:0.016" fill="#000000" d="M 582.5,548.5 C 583.833,549.167 583.833,549.167 582.5,548.5 Z"/></g>
<g><path style="opacity:0.016" fill="#000000" d="M 220.5,549.5 C 221.833,550.167 221.833,550.167 220.5,549.5 Z"/></g>
<g><path style="opacity:0.016" fill="#000000" d="M 221.5,551.5 C 222.833,552.167 222.833,552.167 221.5,551.5 Z"/></g>
<g><path style="opacity:0.016" fill="#000000" d="M 580.5,551.5 C 581.833,552.167 581.833,552.167 580.5,551.5 Z"/></g>
<g><path style="opacity:0.016" fill="#000000" d="M 223.5,554.5 C 224.833,555.167 224.833,555.167 223.5,554.5 Z"/></g>
<g><path style="opacity:0.016" fill="#000000" d="M 578.5,554.5 C 579.833,555.167 579.833,555.167 578.5,554.5 Z"/></g>
<g><path style="opacity:0.016" fill="#000000" d="M 577.5,556.5 C 578.833,557.167 578.833,557.167 577.5,556.5 Z"/></g>
<g><path style="opacity:0.016" fill="#000000" d="M 226.5,557.5 C 225.833,558.167 225.833,558.167 226.5,557.5 Z"/></g>
<g><path style="opacity:0.016" fill="#000000" d="M 576.5,557.5 C 576.833,557.5 577.167,557.5 577.5,557.5C 577.315,558.17 576.981,558.17 576.5,557.5 Z"/></g>
<g><path style="opacity:0.016" fill="#000000" d="M 227.5,559.5 C 226.833,560.167 226.833,560.167 227.5,559.5 Z"/></g>
<g><path style="opacity:0.016" fill="#000000" d="M 575.5,559.5 C 576.833,560.167 576.833,560.167 575.5,559.5 Z"/></g>
<g><path style="opacity:0.016" fill="#000000" d="M 228.5,562.5 C 229.833,563.167 229.833,563.167 228.5,562.5 Z"/></g>
<g><path style="opacity:0.016" fill="#000000" d="M 573.5,562.5 C 574.833,563.167 574.833,563.167 573.5,562.5 Z"/></g>
<g><path style="opacity:0.016" fill="#000000" d="M 572.5,563.5 C 572.833,563.5 573.167,563.5 573.5,563.5C 573.315,564.17 572.981,564.17 572.5,563.5 Z"/></g>
<g><path style="opacity:0.016" fill="#000000" d="M 231.5,565.5 C 230.833,566.167 230.833,566.167 231.5,565.5 Z"/></g>
<g><path style="opacity:0.016" fill="#000000" d="M 571.5,565.5 C 572.833,566.167 572.833,566.167 571.5,565.5 Z"/></g>
<g><path style="opacity:0.016" fill="#000000" d="M 231.5,567.5 C 232.833,568.167 232.833,568.167 231.5,567.5 Z"/></g>
<g><path style="opacity:0.016" fill="#000000" d="M 570.5,567.5 C 571.833,568.167 571.833,568.167 570.5,567.5 Z"/></g>
<g><path style="opacity:0.016" fill="#000000" d="M 569.5,568.5 C 569.833,568.5 570.167,568.5 570.5,568.5C 570.315,569.17 569.981,569.17 569.5,568.5 Z"/></g>
<g><path style="opacity:0.016" fill="#000000" d="M 233.5,570.5 C 234.833,571.167 234.833,571.167 233.5,570.5 Z"/></g>
<g><path style="opacity:0.016" fill="#000000" d="M 568.5,570.5 C 569.833,571.167 569.833,571.167 568.5,570.5 Z"/></g>
<g><path style="opacity:0.016" fill="#000000" d="M 235.5,573.5 C 236.833,574.167 236.833,574.167 235.5,573.5 Z"/></g>
<g><path style="opacity:0.016" fill="#000000" d="M 566.5,573.5 C 567.833,574.167 567.833,574.167 566.5,573.5 Z"/></g>
<g><path style="opacity:0.016" fill="#000000" d="M 238.5,576.5 C 237.833,577.167 237.833,577.167 238.5,576.5 Z"/></g>
<g><path style="opacity:0.016" fill="#000000" d="M 564.5,576.5 C 565.833,577.167 565.833,577.167 564.5,576.5 Z"/></g>
<g><path style="opacity:0.016" fill="#000000" d="M 239.5,579.5 C 238.833,578.167 238.833,578.167 239.5,579.5 Z"/></g>
<g><path style="opacity:0.016" fill="#000000" d="M 239.5,579.5 C 239.833,579.5 240.167,579.5 240.5,579.5C 240.315,580.17 239.981,580.17 239.5,579.5 Z"/></g>
<g><path style="opacity:0.016" fill="#000000" d="M 562.5,579.5 C 563.833,580.167 563.833,580.167 562.5,579.5 Z"/></g>
<g><path style="opacity:0.016" fill="#000000" d="M 241.5,582.5 C 240.833,581.167 240.833,581.167 241.5,582.5 Z"/></g>
<g><path style="opacity:0.016" fill="#000000" d="M 241.5,582.5 C 241.833,582.5 242.167,582.5 242.5,582.5C 242.315,583.17 241.981,583.17 241.5,582.5 Z"/></g>
<g><path style="opacity:0.016" fill="#000000" d="M 560.5,582.5 C 561.833,583.167 561.833,583.167 560.5,582.5 Z"/></g>
<g><path style="opacity:0.016" fill="#000000" d="M 559.5,583.5 C 559.833,583.5 560.167,583.5 560.5,583.5C 560.315,584.17 559.981,584.17 559.5,583.5 Z"/></g>
<g><path style="opacity:0.016" fill="#000000" d="M 243.5,585.5 C 242.833,584.167 242.833,584.167 243.5,585.5 Z"/></g>
<g><path style="opacity:0.016" fill="#000000" d="M 243.5,585.5 C 243.833,585.5 244.167,585.5 244.5,585.5C 244.315,586.17 243.981,586.17 243.5,585.5 Z"/></g>
<g><path style="opacity:0.016" fill="#000000" d="M 558.5,585.5 C 559.833,586.167 559.833,586.167 558.5,585.5 Z"/></g>
<g><path style="opacity:0.016" fill="#000000" d="M 557.5,586.5 C 557.833,586.5 558.167,586.5 558.5,586.5C 558.315,587.17 557.981,587.17 557.5,586.5 Z"/></g>
<g><path style="opacity:0.016" fill="#000000" d="M 245.5,588.5 C 244.833,587.167 244.833,587.167 245.5,588.5 Z"/></g>
<g><path style="opacity:0.016" fill="#000000" d="M 245.5,588.5 C 245.833,588.5 246.167,588.5 246.5,588.5C 246.315,589.17 245.981,589.17 245.5,588.5 Z"/></g>
<g><path style="opacity:0.016" fill="#000000" d="M 555.5,589.5 C 556.833,590.167 556.833,590.167 555.5,589.5 Z"/></g>
<g><path style="opacity:0.016" fill="#000000" d="M 247.5,591.5 C 246.833,590.167 246.833,590.167 247.5,591.5 Z"/></g>
<g><path style="opacity:0.016" fill="#000000" d="M 247.5,591.5 C 247.833,591.5 248.167,591.5 248.5,591.5C 248.315,592.17 247.981,592.17 247.5,591.5 Z"/></g>
<g><path style="opacity:0.016" fill="#000000" d="M 553.5,592.5 C 554.833,593.167 554.833,593.167 553.5,592.5 Z"/></g>
<g><path style="opacity:0.016" fill="#000000" d="M 248.5,593.5 C 249.833,594.167 249.833,594.167 248.5,593.5 Z"/></g>
<g><path style="opacity:0.016" fill="#000000" d="M 551.5,595.5 C 552.833,596.167 552.833,596.167 551.5,595.5 Z"/></g>
<g><path style="opacity:0.016" fill="#000000" d="M 251.5,597.5 C 250.833,596.167 250.833,596.167 251.5,597.5 Z"/></g>
<g><path style="opacity:0.016" fill="#000000" d="M 550.5,596.5 C 550.833,596.5 551.167,596.5 551.5,596.5C 551.315,597.17 550.981,597.17 550.5,596.5 Z"/></g>
<g><path style="opacity:0.016" fill="#000000" d="M 251.5,597.5 C 251.833,597.5 252.167,597.5 252.5,597.5C 252.315,598.17 251.981,598.17 251.5,597.5 Z"/></g>
<g><path style="opacity:0.016" fill="#000000" d="M 548.5,599.5 C 549.833,600.167 549.833,600.167 548.5,599.5 Z"/></g>
<g><path style="opacity:0.016" fill="#000000" d="M 253.5,600.5 C 254.833,601.167 254.833,601.167 253.5,600.5 Z"/></g>
<g><path style="opacity:0.016" fill="#000000" d="M 547.5,600.5 C 547.833,600.5 548.167,600.5 548.5,600.5C 548.315,601.17 547.981,601.17 547.5,600.5 Z"/></g>
<g><path style="opacity:0.016" fill="#000000" d="M 255.5,603.5 C 256.833,604.167 256.833,604.167 255.5,603.5 Z"/></g>
<g><path style="opacity:0.016" fill="#000000" d="M 545.5,603.5 C 546.833,604.167 546.833,604.167 545.5,603.5 Z"/></g>
<g><path style="opacity:0.016" fill="#000000" d="M 544.5,604.5 C 544.833,604.5 545.167,604.5 545.5,604.5C 545.315,605.17 544.981,605.17 544.5,604.5 Z"/></g>
<g><path style="opacity:0.016" fill="#000000" d="M 258.5,607.5 C 257.833,606.167 257.833,606.167 258.5,607.5 Z"/></g>
<g><path style="opacity:0.016" fill="#000000" d="M 258.5,607.5 C 258.833,607.5 259.167,607.5 259.5,607.5C 259.315,608.17 258.981,608.17 258.5,607.5 Z"/></g>
<g><path style="opacity:0.016" fill="#000000" d="M 542.5,607.5 C 543.833,608.167 543.833,608.167 542.5,607.5 Z"/></g>
<g><path style="opacity:0.016" fill="#000000" d="M 541.5,608.5 C 541.833,608.5 542.167,608.5 542.5,608.5C 542.315,609.17 541.981,609.17 541.5,608.5 Z"/></g>
<g><path style="opacity:0.016" fill="#000000" d="M 259.5,609.5 C 260.833,610.167 260.833,610.167 259.5,609.5 Z"/></g>
<g><path style="opacity:0.016" fill="#000000" d="M 539.5,611.5 C 540.833,612.167 540.833,612.167 539.5,611.5 Z"/></g>
<g><path style="opacity:0.016" fill="#000000" d="M 537.5,614.5 C 538.833,615.167 538.833,615.167 537.5,614.5 Z"/></g>
<g><path style="opacity:0.016" fill="#000000" d="M 536.5,615.5 C 536.833,615.5 537.167,615.5 537.5,615.5C 537.315,616.17 536.981,616.17 536.5,615.5 Z"/></g>
<g><path style="opacity:0.016" fill="#000000" d="M 265.5,616.5 C 264.833,617.167 264.833,617.167 265.5,616.5 Z"/></g>
<g><path style="opacity:0.016" fill="#000000" d="M 534.5,618.5 C 535.833,619.167 535.833,619.167 534.5,618.5 Z"/></g>
<g><path style="opacity:0.016" fill="#000000" d="M 266.5,619.5 C 267.833,620.167 267.833,620.167 266.5,619.5 Z"/></g>
<g><path style="opacity:0.016" fill="#000000" d="M 533.5,619.5 C 533.833,619.5 534.167,619.5 534.5,619.5C 534.315,620.17 533.981,620.17 533.5,619.5 Z"/></g>
<g><path style="opacity:0.016" fill="#000000" d="M 532.5,621.5 C 533.833,622.167 533.833,622.167 532.5,621.5 Z"/></g>
<g><path style="opacity:0.016" fill="#000000" d="M 268.5,622.5 C 269.833,623.167 269.833,623.167 268.5,622.5 Z"/></g>
<g><path style="opacity:0.016" fill="#000000" d="M 531.5,622.5 C 531.833,622.5 532.167,622.5 532.5,622.5C 532.315,623.17 531.981,623.17 531.5,622.5 Z"/></g>
<g><path style="opacity:0.016" fill="#000000" d="M 270.5,625.5 C 271.833,626.167 271.833,626.167 270.5,625.5 Z"/></g>
<g><path style="opacity:0.016" fill="#000000" d="M 529.5,625.5 C 530.833,626.167 530.833,626.167 529.5,625.5 Z"/></g>
<g><path style="opacity:0.016" fill="#000000" d="M 528.5,626.5 C 528.833,626.5 529.167,626.5 529.5,626.5C 529.315,627.17 528.981,627.17 528.5,626.5 Z"/></g>
<g><path style="opacity:0.016" fill="#000000" d="M 272.5,628.5 C 273.833,629.167 273.833,629.167 272.5,628.5 Z"/></g>
<g><path style="opacity:0.016" fill="#000000" d="M 527.5,628.5 C 528.833,629.167 528.833,629.167 527.5,628.5 Z"/></g>
<g><path style="opacity:0.016" fill="#000000" d="M 526.5,629.5 C 526.833,629.5 527.167,629.5 527.5,629.5C 527.315,630.17 526.981,630.17 526.5,629.5 Z"/></g>
<g><path style="opacity:0.016" fill="#000000" d="M 274.5,631.5 C 275.833,632.167 275.833,632.167 274.5,631.5 Z"/></g>
<g><path style="opacity:0.016" fill="#000000" d="M 524.5,632.5 C 525.833,633.167 525.833,633.167 524.5,632.5 Z"/></g>
<g><path style="opacity:0.016" fill="#000000" d="M 523.5,633.5 C 523.833,633.5 524.167,633.5 524.5,633.5C 524.315,634.17 523.981,634.17 523.5,633.5 Z"/></g>
<g><path style="opacity:0.016" fill="#000000" d="M 277.5,635.5 C 276.833,634.167 276.833,634.167 277.5,635.5 Z"/></g>
<g><path style="opacity:0.016" fill="#000000" d="M 277.5,635.5 C 277.833,635.5 278.167,635.5 278.5,635.5C 278.315,636.17 277.981,636.17 277.5,635.5 Z"/></g>
<g><path style="opacity:0.016" fill="#000000" d="M 522.5,635.5 C 523.833,636.167 523.833,636.167 522.5,635.5 Z"/></g>
<g><path style="opacity:0.016" fill="#000000" d="M 521.5,636.5 C 521.833,636.5 522.167,636.5 522.5,636.5C 522.315,637.17 521.981,637.17 521.5,636.5 Z"/></g>
<g><path style="opacity:0.016" fill="#000000" d="M 278.5,637.5 C 279.833,638.167 279.833,638.167 278.5,637.5 Z"/></g>
<g><path style="opacity:0.016" fill="#000000" d="M 519.5,639.5 C 520.833,640.167 520.833,640.167 519.5,639.5 Z"/></g>
<g><path style="opacity:0.016" fill="#000000" d="M 518.5,640.5 C 518.833,640.5 519.167,640.5 519.5,640.5C 519.315,641.17 518.981,641.17 518.5,640.5 Z"/></g>
<g><path style="opacity:0.016" fill="#000000" d="M 517.5,642.5 C 518.833,643.167 518.833,643.167 517.5,642.5 Z"/></g>
<g><path style="opacity:0.016" fill="#000000" d="M 516.5,643.5 C 516.833,643.5 517.167,643.5 517.5,643.5C 517.315,644.17 516.981,644.17 516.5,643.5 Z"/></g>
<g><path style="opacity:0.016" fill="#000000" d="M 283.5,644.5 C 284.833,645.167 284.833,645.167 283.5,644.5 Z"/></g>
<g><path style="opacity:0.016" fill="#000000" d="M 514.5,646.5 C 515.833,647.167 515.833,647.167 514.5,646.5 Z"/></g>
<g><path style="opacity:0.016" fill="#000000" d="M 286.5,648.5 C 285.833,647.167 285.833,647.167 286.5,648.5 Z"/></g>
<g><path style="opacity:0.016" fill="#000000" d="M 513.5,647.5 C 513.833,647.5 514.167,647.5 514.5,647.5C 514.315,648.17 513.981,648.17 513.5,647.5 Z"/></g>
<g><path style="opacity:0.016" fill="#000000" d="M 286.5,648.5 C 286.833,648.5 287.167,648.5 287.5,648.5C 287.315,649.17 286.981,649.17 286.5,648.5 Z"/></g>
<g><path style="opacity:0.016" fill="#000000" d="M 288.5,651.5 C 287.833,650.167 287.833,650.167 288.5,651.5 Z"/></g>
<g><path style="opacity:0.016" fill="#000000" d="M 511.5,650.5 C 512.833,651.167 512.833,651.167 511.5,650.5 Z"/></g>
<g><path style="opacity:0.016" fill="#000000" d="M 288.5,651.5 C 288.833,651.5 289.167,651.5 289.5,651.5C 289.315,652.17 288.981,652.17 288.5,651.5 Z"/></g>
<g><path style="opacity:0.016" fill="#000000" d="M 510.5,651.5 C 510.833,651.5 511.167,651.5 511.5,651.5C 511.315,652.17 510.981,652.17 510.5,651.5 Z"/></g>
<g><path style="opacity:0.016" fill="#000000" d="M 509.5,653.5 C 510.833,654.167 510.833,654.167 509.5,653.5 Z"/></g>
<g><path style="opacity:0.016" fill="#000000" d="M 291.5,655.5 C 290.833,654.167 290.833,654.167 291.5,655.5 Z"/></g>
<g><path style="opacity:0.016" fill="#000000" d="M 509.5,654.5 C 508.833,655.167 508.833,655.167 509.5,654.5 Z"/></g>
<g><path style="opacity:0.016" fill="#000000" d="M 291.5,655.5 C 291.833,655.5 292.167,655.5 292.5,655.5C 292.315,656.17 291.981,656.17 291.5,655.5 Z"/></g>
<g><path style="opacity:0.016" fill="#000000" d="M 293.5,658.5 C 292.833,657.167 292.833,657.167 293.5,658.5 Z"/></g>
<g><path style="opacity:0.016" fill="#000000" d="M 506.5,657.5 C 507.833,658.167 507.833,658.167 506.5,657.5 Z"/></g>
<g><path style="opacity:0.016" fill="#000000" d="M 293.5,658.5 C 293.833,658.5 294.167,658.5 294.5,658.5C 294.315,659.17 293.981,659.17 293.5,658.5 Z"/></g>
<g><path style="opacity:0.016" fill="#000000" d="M 506.5,658.5 C 505.833,659.167 505.833,659.167 506.5,658.5 Z"/></g>
<g><path style="opacity:0.016" fill="#000000" d="M 296.5,662.5 C 295.833,661.167 295.833,661.167 296.5,662.5 Z"/></g>
<g><path style="opacity:0.016" fill="#000000" d="M 503.5,661.5 C 504.833,662.167 504.833,662.167 503.5,661.5 Z"/></g>
<g><path style="opacity:0.016" fill="#000000" d="M 296.5,662.5 C 296.833,662.5 297.167,662.5 297.5,662.5C 297.315,663.17 296.981,663.17 296.5,662.5 Z"/></g>
<g><path style="opacity:0.016" fill="#000000" d="M 503.5,662.5 C 502.833,663.167 502.833,663.167 503.5,662.5 Z"/></g>
<g><path style="opacity:0.016" fill="#000000" d="M 501.5,663.5 C 501.833,663.5 502.167,663.5 502.5,663.5C 502.315,664.17 501.981,664.17 501.5,663.5 Z"/></g>
<g><path style="opacity:0.016" fill="#000000" d="M 299.5,666.5 C 298.833,665.167 298.833,665.167 299.5,666.5 Z"/></g>
<g><path style="opacity:0.016" fill="#000000" d="M 299.5,666.5 C 299.833,666.5 300.167,666.5 300.5,666.5C 300.315,667.17 299.981,667.17 299.5,666.5 Z"/></g>
<g><path style="opacity:0.016" fill="#000000" d="M 499.5,666.5 C 500.833,667.167 500.833,667.167 499.5,666.5 Z"/></g>
<g><path style="opacity:0.016" fill="#000000" d="M 498.5,667.5 C 498.833,667.5 499.167,667.5 499.5,667.5C 499.315,668.17 498.981,668.17 498.5,667.5 Z"/></g>
<g><path style="opacity:0.016" fill="#000000" d="M 303.5,670.5 C 302.833,671.167 302.833,671.167 303.5,670.5 Z"/></g>
<g><path style="opacity:0.016" fill="#000000" d="M 493.5,673.5 C 494.833,674.167 494.833,674.167 493.5,673.5 Z"/></g>
<g><path style="opacity:0.016" fill="#000000" d="M 306.5,675.5 C 305.833,674.167 305.833,674.167 306.5,675.5 Z"/></g>
<g><path style="opacity:0.016" fill="#000000" d="M 306.5,675.5 C 306.833,675.5 307.167,675.5 307.5,675.5C 307.315,676.17 306.981,676.17 306.5,675.5 Z"/></g>
<g><path style="opacity:0.016" fill="#000000" d="M 491.5,676.5 C 492.833,677.167 492.833,677.167 491.5,676.5 Z"/></g>
<g><path style="opacity:0.016" fill="#000000" d="M 490.5,677.5 C 490.833,677.5 491.167,677.5 491.5,677.5C 491.315,678.17 490.981,678.17 490.5,677.5 Z"/></g>
<g><path style="opacity:0.016" fill="#000000" d="M 489.5,678.5 C 489.833,678.5 490.167,678.5 490.5,678.5C 490.315,679.17 489.981,679.17 489.5,678.5 Z"/></g>
<g><path style="opacity:0.016" fill="#000000" d="M 310.5,680.5 C 309.833,679.167 309.833,679.167 310.5,680.5 Z"/></g>
<g><path style="opacity:0.016" fill="#000000" d="M 310.5,680.5 C 311.833,681.167 311.833,681.167 310.5,680.5 Z"/></g>
<g><path style="opacity:0.016" fill="#000000" d="M 313.5,682.5 C 312.833,683.167 312.833,683.167 313.5,682.5 Z"/></g>
<g><path style="opacity:0.016" fill="#000000" d="M 486.5,682.5 C 487.833,683.167 487.833,683.167 486.5,682.5 Z"/></g>
<g><path style="opacity:0.016" fill="#000000" d="M 486.5,683.5 C 485.833,684.167 485.833,684.167 486.5,683.5 Z"/></g>
<g><path style="opacity:0.016" fill="#000000" d="M 484.5,684.5 C 484.833,684.5 485.167,684.5 485.5,684.5C 485.315,685.17 484.981,685.17 484.5,684.5 Z"/></g>
<g><path style="opacity:0.016" fill="#000000" d="M 315.5,686.5 C 314.833,685.167 314.833,685.167 315.5,686.5 Z"/></g>
<g><path style="opacity:0.016" fill="#000000" d="M 483.5,685.5 C 483.833,685.5 484.167,685.5 484.5,685.5C 484.315,686.17 483.981,686.17 483.5,685.5 Z"/></g>
<g><path style="opacity:0.016" fill="#000000" d="M 315.5,686.5 C 316.167,686.5 316.5,686.833 316.5,687.5C 316.167,687.167 315.833,686.833 315.5,686.5 Z"/></g>
<g><path style="opacity:0.016" fill="#000000" d="M 316.5,687.5 C 317.833,688.167 317.833,688.167 316.5,687.5 Z"/></g>
<g><path style="opacity:0.016" fill="#000000" d="M 319.5,689.5 C 318.833,690.167 318.833,690.167 319.5,689.5 Z"/></g>
<g><path style="opacity:0.016" fill="#000000" d="M 478.5,691.5 C 479.833,692.167 479.833,692.167 478.5,691.5 Z"/></g>
<g><path style="opacity:0.016" fill="#000000" d="M 322.5,692.5 C 321.833,693.167 321.833,693.167 322.5,692.5 Z"/></g>
<g><path style="opacity:0.016" fill="#000000" d="M 478.5,692.5 C 477.833,693.167 477.833,693.167 478.5,692.5 Z"/></g>
<g><path style="opacity:0.016" fill="#000000" d="M 475.5,694.5 C 476.833,695.167 476.833,695.167 475.5,694.5 Z"/></g>
<g><path style="opacity:0.016" fill="#000000" d="M 475.5,695.5 C 474.833,696.167 474.833,696.167 475.5,695.5 Z"/></g>
<g><path style="opacity:0.016" fill="#000000" d="M 474.5,696.5 C 473.833,697.167 473.833,697.167 474.5,696.5 Z"/></g>
<g><path style="opacity:0.016" fill="#000000" d="M 473.5,697.5 C 472.833,698.167 472.833,698.167 473.5,697.5 Z"/></g>
<g><path style="opacity:0.016" fill="#000000" d="M 472.5,698.5 C 471.833,699.167 471.833,699.167 472.5,698.5 Z"/></g>
<g><path style="opacity:0.016" fill="#000000" d="M 471.5,699.5 C 470.833,700.167 470.833,700.167 471.5,699.5 Z"/></g>
<g><path style="opacity:0.016" fill="#000000" d="M 470.5,700.5 C 469.833,701.167 469.833,701.167 470.5,700.5 Z"/></g>
<g><path style="opacity:0.016" fill="#000000" d="M 467.5,702.5 C 468.833,703.167 468.833,703.167 467.5,702.5 Z"/></g>
<g><path style="opacity:0.016" fill="#000000" d="M 465.5,703.5 C 466.833,704.167 466.833,704.167 465.5,703.5 Z"/></g>
<g><path style="opacity:0.016" fill="#000000" d="M 335.5,706.5 C 335.833,706.5 336.167,706.5 336.5,706.5C 336.5,706.833 336.5,707.167 336.5,707.5C 336.167,707.167 335.833,706.833 335.5,706.5 Z"/></g>
<g><path style="opacity:0.016" fill="#000000" d="M 336.5,707.5 C 337.167,707.5 337.5,707.833 337.5,708.5C 337.167,708.167 336.833,707.833 336.5,707.5 Z"/></g>
<g><path style="opacity:0.016" fill="#000000" d="M 461.5,707.5 C 462.833,708.167 462.833,708.167 461.5,707.5 Z"/></g>
<g><path style="opacity:0.016" fill="#000000" d="M 337.5,708.5 C 338.833,709.167 338.833,709.167 337.5,708.5 Z"/></g>
<g><path style="opacity:0.016" fill="#000000" d="M 461.5,708.5 C 460.833,709.167 460.833,709.167 461.5,708.5 Z"/></g>
<g><path style="opacity:0.016" fill="#000000" d="M 460.5,709.5 C 459.833,710.167 459.833,710.167 460.5,709.5 Z"/></g>
<g><path style="opacity:0.016" fill="#000000" d="M 342.5,711.5 C 342.5,711.833 342.5,712.167 342.5,712.5C 341.83,712.019 341.83,711.685 342.5,711.5 Z"/></g>
<g><path style="opacity:0.016" fill="#000000" d="M 456.5,711.5 C 457.833,712.167 457.833,712.167 456.5,711.5 Z"/></g>
<g><path style="opacity:0.016" fill="#000000" d="M 342.5,712.5 C 343.833,713.167 343.833,713.167 342.5,712.5 Z"/></g>
<g><path style="opacity:0.016" fill="#000000" d="M 456.5,712.5 C 455.833,713.167 455.833,713.167 456.5,712.5 Z"/></g>
<g><path style="opacity:0.016" fill="#000000" d="M 455.5,713.5 C 454.833,714.167 454.833,714.167 455.5,713.5 Z"/></g>
<g><path style="opacity:0.016" fill="#000000" d="M 346.5,714.5 C 346.5,714.833 346.5,715.167 346.5,715.5C 345.83,715.019 345.83,714.685 346.5,714.5 Z"/></g>
<g><path style="opacity:0.016" fill="#000000" d="M 346.5,715.5 C 347.833,716.167 347.833,716.167 346.5,715.5 Z"/></g>
<g><path style="opacity:0.016" fill="#000000" d="M 451.5,715.5 C 452.833,716.167 452.833,716.167 451.5,715.5 Z"/></g>
<g><path style="opacity:0.016" fill="#000000" d="M 349.5,717.5 C 350.833,718.167 350.833,718.167 349.5,717.5 Z"/></g>
<g><path style="opacity:0.016" fill="#000000" d="M 352.5,719.5 C 353.833,720.167 353.833,720.167 352.5,719.5 Z"/></g>
<g><path style="opacity:0.016" fill="#000000" d="M 445.5,719.5 C 446.833,720.167 446.833,720.167 445.5,719.5 Z"/></g>
<g><path style="opacity:0.016" fill="#000000" d="M 355.5,721.5 C 356.833,722.167 356.833,722.167 355.5,721.5 Z"/></g>
<g><path style="opacity:0.016" fill="#000000" d="M 357.5,722.5 C 358.833,723.167 358.833,723.167 357.5,722.5 Z"/></g>
<g><path style="opacity:0.016" fill="#000000" d="M 440.5,722.5 C 441.833,723.167 441.833,723.167 440.5,722.5 Z"/></g>
<g><path style="opacity:0.016" fill="#000000" d="M 435.5,725.5 C 436.833,726.167 436.833,726.167 435.5,725.5 Z"/></g>
<g><path style="opacity:0.016" fill="#000000" d="M 366.5,726.5 C 365.833,727.167 365.833,727.167 366.5,726.5 Z"/></g>
<g><path style="opacity:0.016" fill="#000000" d="M 367.5,727.5 C 368.833,728.167 368.833,728.167 367.5,727.5 Z"/></g>
<g><path style="opacity:0.016" fill="#000000" d="M 431.5,727.5 C 430.833,728.167 430.833,728.167 431.5,727.5 Z"/></g>
<g><path style="opacity:0.016" fill="#000000" d="M 369.5,728.5 C 370.833,729.167 370.833,729.167 369.5,728.5 Z"/></g>
<g><path style="opacity:0.016" fill="#000000" d="M 428.5,728.5 C 429.833,729.167 429.833,729.167 428.5,728.5 Z"/></g>
<g><path style="opacity:0.016" fill="#000000" d="M 371.5,730.5 C 371.897,729.475 372.563,729.308 373.5,730C 372.906,730.464 372.239,730.631 371.5,730.5 Z"/></g>
<g><path style="opacity:0.016" fill="#000000" d="M 425.5,730.5 C 425.897,729.475 426.563,729.308 427.5,730C 426.906,730.464 426.239,730.631 425.5,730.5 Z"/></g>
<g><path style="opacity:0.016" fill="#000000" d="M 374.5,731.5 C 374.897,730.475 375.563,730.308 376.5,731C 375.906,731.464 375.239,731.631 374.5,731.5 Z"/></g>
<g><path style="opacity:0.016" fill="#000000" d="M 422.5,731.5 C 422.897,730.475 423.563,730.308 424.5,731C 423.906,731.464 423.239,731.631 422.5,731.5 Z"/></g>
<g><path style="opacity:0.016" fill="#000000" d="M 377.5,732.5 C 377.897,731.475 378.563,731.308 379.5,732C 378.906,732.464 378.239,732.631 377.5,732.5 Z"/></g>
<g><path style="opacity:0.016" fill="#000000" d="M 419.5,732.5 C 419.897,731.475 420.563,731.308 421.5,732C 420.906,732.464 420.239,732.631 419.5,732.5 Z"/></g>
<g><path style="opacity:0.016" fill="#000000" d="M 381.5,733.5 C 382.251,732.427 383.251,732.26 384.5,733C 383.552,733.483 382.552,733.649 381.5,733.5 Z"/></g>
<g><path style="opacity:0.016" fill="#000000" d="M 415.5,733.5 C 415.897,732.475 416.563,732.308 417.5,733C 416.906,733.464 416.239,733.631 415.5,733.5 Z"/></g>
<g><path style="opacity:0.016" fill="#000000" d="M 387.5,734.5 C 387.897,733.475 388.563,733.308 389.5,734C 388.906,734.464 388.239,734.631 387.5,734.5 Z"/></g>
<g><path style="opacity:0.016" fill="#000000" d="M 409.5,734.5 C 410.251,733.427 411.251,733.26 412.5,734C 411.552,734.483 410.552,734.649 409.5,734.5 Z"/></g>
</svg>
